<svg width="190" height="24" viewBox="0 0 190 24" fill="none" xmlns="http://www.w3.org/2000/svg">
<g clip-path="url(#clip0_139_30677)">
<path fill-rule="evenodd" clip-rule="evenodd" d="M4.9096 11.9912V21.408C1.9228 19.212 0 15.8173 0 12.0018V11.9947C0 5.37145 5.7836 0 12.92 0H12.9314C17.7118 0 21.8804 2.41874 24.111 6.00088L19.8588 8.27818C18.4718 6.05393 15.8878 4.55813 12.92 4.55813C8.4968 4.55813 4.9134 7.88566 4.9058 11.9912H4.9096ZM12.9238 14.8767C14.6376 14.8767 16.0246 13.586 16.0246 11.9982C16.0246 10.4105 14.6376 9.11979 12.9238 9.11979C11.21 9.11979 9.823 10.4105 9.823 11.9982C9.823 13.5895 11.2138 14.8802 12.9238 14.8802V14.8767ZM17.727 11.9912L19.9424 15.591C18.5782 17.886 15.9486 19.4383 12.9238 19.4383C11.8256 19.4383 10.7768 19.2332 9.823 18.8584V23.6464C10.8148 23.8727 11.8522 23.9965 12.92 23.9965H12.9276C20.064 23.9965 25.8476 18.625 25.8476 11.9982V11.9912H17.727Z" fill="#00B1AD"/>
<path d="M38.0569 4.38843L42.5409 14.5761H42.7195L47.1997 4.38843H51.3455V19.4101H48.0927V9.57599H47.9597L43.7455 19.3464H41.5149L37.3007 9.53356H37.1677V19.4101H33.9111V4.38843H38.0569Z" fill="#303030"/>
<path d="M56.7563 19.4101H53.4541V4.38843H56.6651V10.117H56.7981C57.3567 8.79803 58.5689 8.00239 60.4081 8.00239C62.9389 8.00239 64.6033 9.59014 64.6033 12.2352V19.4136H61.3011V12.7727C61.3011 11.3724 60.4993 10.552 59.1161 10.552C57.7329 10.552 56.7525 11.4113 56.7525 12.8965V19.4101H56.7563Z" fill="#303030"/>
<path d="M74.3545 8.1438H77.6567V19.41H74.4913V17.3767H74.3583C73.8111 18.6816 72.5077 19.555 70.6799 19.555C68.2593 19.555 66.6025 17.9602 66.6025 15.3222V8.1438H69.9047V14.7847C69.9047 16.1249 70.7293 16.9524 72.0213 16.963C73.2297 16.9524 74.3621 16.1532 74.3621 14.6185V8.1438H74.3545Z" fill="#303030"/>
<path d="M79.7354 4.38843H83.0376V10.0322H83.1287C83.5847 9.11983 84.5424 7.99886 86.583 7.99886C89.2582 7.99886 91.5002 9.92961 91.5078 13.7876C91.5002 17.5536 89.3456 19.5975 86.583 19.5975C84.6108 19.5975 83.6037 18.5367 83.1287 17.6066H82.9958V19.4101H79.7391V4.38843H79.7354ZM85.5341 17.1505C87.2175 17.1399 88.1333 15.7608 88.1219 13.7664C88.1333 11.8073 87.2403 10.4459 85.5341 10.4459C83.828 10.4459 82.9578 11.7437 82.973 13.7664C82.9616 15.7997 83.9115 17.1363 85.5341 17.1505Z" fill="#303030"/>
<path d="M100.985 7.31644C102.528 7.31644 103.823 7.82565 104.952 8.93954L106.639 7.31644C105.283 5.79235 103.269 5.00024 100.863 5.00024C96.3602 5.00024 93.0732 8.06611 93.0732 12.3095C93.0732 16.5529 96.364 19.6188 100.821 19.6188C102.858 19.6188 104.952 19.0106 106.453 17.8118V12.1468H101.395V14.3676H103.922V16.5741C102.999 17.101 101.992 17.3061 100.962 17.3061C97.9182 17.3061 95.7598 15.195 95.7598 12.313C95.7598 9.43107 97.9182 7.31997 100.981 7.31997L100.985 7.31644Z" fill="#303030"/>
<path d="M113.875 8.45153C110.607 8.45153 108.201 10.7677 108.201 13.9927C108.201 17.2177 110.588 19.5551 114.266 19.5551C116.158 19.5551 117.697 18.9469 118.685 17.787L117.31 16.224C116.527 17.0161 115.562 17.4016 114.331 17.4016C112.419 17.4016 111.082 16.3867 110.774 14.8025H119.388C119.407 14.5585 119.43 14.2544 119.43 14.0528C119.43 10.6616 117.086 8.448 113.878 8.448L113.875 8.45153ZM110.751 13.1228C110.998 11.5386 112.21 10.4848 113.875 10.4848C115.539 10.4848 116.774 11.5598 116.979 13.1228H110.751Z" fill="#303030"/>
<path d="M127.502 8.45142C125.898 8.45142 124.56 8.97831 123.721 9.97551V8.57518H121.273V19.4171H123.842V13.936C123.842 11.7648 125.077 10.6686 126.905 10.6686C128.55 10.6686 129.516 11.6021 129.516 13.5329V19.4206H132.084V13.2076C132.084 9.94014 130.131 8.45495 127.502 8.45495V8.45142Z" fill="#303030"/>
<path d="M139.771 8.45142C136.401 8.45142 133.935 10.7464 133.935 13.9926C133.935 17.2388 136.401 19.555 139.771 19.555C143.142 19.555 145.631 17.2388 145.631 13.9926C145.631 10.7464 143.184 8.45142 139.771 8.45142ZM139.771 17.3838C137.921 17.3838 136.522 16.0648 136.522 13.9926C136.522 11.9204 137.921 10.6014 139.771 10.6014C141.622 10.6014 143.039 11.9204 143.039 13.9926C143.039 16.0648 141.641 17.3838 139.771 17.3838Z" fill="#303030"/>
<path d="M153.565 8.45142C152.064 8.45142 150.791 8.96062 149.929 9.99319V8.57165H147.481V23.3528H150.05V18.0946C150.936 19.0882 152.167 19.555 153.565 19.555C156.772 19.555 159.136 17.3626 159.136 13.9926C159.136 10.6226 156.772 8.45142 153.565 8.45142ZM153.276 17.3838C151.426 17.3838 150.008 16.0648 150.008 13.9926C150.008 11.9204 151.426 10.6014 153.276 10.6014C155.127 10.6014 156.525 11.9204 156.525 13.9926C156.525 16.0648 155.127 17.3838 153.276 17.3838Z" fill="#303030"/>
<path d="M174.648 9.99685C173.785 8.96075 172.508 8.45508 171.011 8.45508C167.804 8.45508 165.44 10.6475 165.44 13.9963C165.44 17.345 167.804 19.5587 171.011 19.5587C172.41 19.5587 173.641 19.0919 174.526 18.0982V19.4172H177.095V8.57531H174.648V9.99685ZM171.296 17.3874C169.446 17.3874 168.047 16.0685 168.047 13.9963C168.047 11.9241 169.446 10.6051 171.296 10.6051C173.147 10.6051 174.564 11.9241 174.564 13.9963C174.564 16.0685 173.147 17.3874 171.296 17.3874Z" fill="#303030"/>
<path d="M163.533 4.34961H160.964V19.4137H163.533V4.34961Z" fill="#303030"/>
<path d="M185.418 8.45142C183.814 8.45142 182.476 8.97831 181.637 9.97551V8.57518H179.189V19.4171H181.758V13.936C181.758 11.7648 182.993 10.6686 184.821 10.6686C186.466 10.6686 187.432 11.6021 187.432 13.5329V19.4206H190V13.2076C190 9.94014 188.047 8.45495 185.418 8.45495V8.45142Z" fill="#303030"/>
</g>
<defs>
<clipPath id="clip0_139_30677">
<rect width="190" height="24" fill="white"/>
</clipPath>
</defs>
</svg>
