<svg width="101" height="13" viewBox="0 0 101 13" fill="none" xmlns="http://www.w3.org/2000/svg">
<g clip-path="url(#clip0_538_23032)">
<path fill-rule="evenodd" clip-rule="evenodd" d="M2.64845 6.49521V11.596C1.07645 10.4065 0.0644531 8.5677 0.0644531 6.50096V6.49713C0.0644531 2.90953 3.10845 0 6.86445 0H6.87045C9.38645 0 11.5805 1.31015 12.7545 3.25048L10.5165 4.48401C9.78645 3.27921 8.42645 2.46899 6.86445 2.46899C4.53645 2.46899 2.65045 4.2714 2.64645 6.49521H2.64845ZM6.86645 8.0582C7.76845 8.0582 8.49845 7.35907 8.49845 6.49904C8.49845 5.63902 7.76845 4.93989 6.86645 4.93989C5.96445 4.93989 5.23445 5.63902 5.23445 6.49904C5.23445 7.36098 5.96645 8.06012 6.86645 8.06012V8.0582ZM9.39445 6.49521L10.5605 8.44512C9.84245 9.68823 8.45845 10.5291 6.86645 10.5291C6.28845 10.5291 5.73645 10.418 5.23445 10.215V12.8085C5.75645 12.931 6.30245 12.9981 6.86445 12.9981H6.86845C10.6245 12.9981 13.6685 10.0886 13.6685 6.49904V6.49521H9.39445Z" fill="white"/>
<path d="M20.0946 2.37695L22.4546 7.8953H22.5486L24.9066 2.37695H27.0886V10.5137H25.3766V5.18688H25.3066L23.0886 10.4792H21.9146L19.6966 5.1639H19.6266V10.5137H17.9126V2.37695H20.0946Z" fill="white"/>
<path d="M29.9367 10.5137H28.1987V2.37695H29.8887V5.47994H29.9587C30.2527 4.76549 30.8907 4.33452 31.8587 4.33452C33.1907 4.33452 34.0667 5.19455 34.0667 6.62728V10.5156H32.3287V6.91843C32.3287 6.15992 31.9067 5.71554 31.1787 5.71554C30.4507 5.71554 29.9347 6.18099 29.9347 6.98547V10.5137H29.9367Z" fill="white"/>
<path d="M39.1987 4.41113H40.9367V10.5137H39.2707V9.41231H39.2007C38.9127 10.1191 38.2267 10.5922 37.2647 10.5922C35.9907 10.5922 35.1187 9.72836 35.1187 8.29945V4.41113H36.8567V8.0083C36.8567 8.73425 37.2907 9.18246 37.9707 9.18821C38.6067 9.18246 39.2027 8.74957 39.2027 7.91828V4.41113H39.1987Z" fill="white"/>
<path d="M42.0308 2.37695H43.7688V5.43397H43.8168C44.0568 4.93979 44.5608 4.3326 45.6348 4.3326C47.0428 4.3326 48.2228 5.37843 48.2268 7.46816C48.2228 9.50809 47.0888 10.6152 45.6348 10.6152C44.5968 10.6152 44.0668 10.0406 43.8168 9.53682H43.7468V10.5137H42.0328V2.37695H42.0308ZM45.0828 9.28973C45.9688 9.28398 46.4508 8.53696 46.4448 7.45666C46.4508 6.39552 45.9808 5.65808 45.0828 5.65808C44.1848 5.65808 43.7268 6.36104 43.7348 7.45666C43.7288 8.55803 44.2288 9.28207 45.0828 9.28973Z" fill="white"/>
<path d="M53.2143 3.9631C54.0263 3.9631 54.7083 4.23892 55.3023 4.84228L56.1903 3.9631C55.4763 3.13755 54.4163 2.7085 53.1503 2.7085C50.7803 2.7085 49.0503 4.36917 49.0503 6.66768C49.0503 8.9662 50.7823 10.6269 53.1283 10.6269C54.2003 10.6269 55.3023 10.2974 56.0923 9.64809V6.57957H53.4303V7.78246H54.7603V8.97769C54.2743 9.26309 53.7443 9.37418 53.2023 9.37418C51.6003 9.37418 50.4643 8.23067 50.4643 6.6696C50.4643 5.10853 51.6003 3.96502 53.2123 3.96502L53.2143 3.9631Z" fill="white"/>
<path d="M59.9982 4.57784C58.2782 4.57784 57.0122 5.83245 57.0122 7.57932C57.0122 9.32619 58.2682 10.5923 60.2042 10.5923C61.2002 10.5923 62.0102 10.2628 62.5302 9.63457L61.8062 8.78795C61.3942 9.21701 60.8862 9.42579 60.2382 9.42579C59.2322 9.42579 58.5282 8.87606 58.3662 8.01795H62.9002C62.9102 7.88578 62.9222 7.72106 62.9222 7.61188C62.9222 5.77499 61.6882 4.57593 60.0002 4.57593L59.9982 4.57784ZM58.3542 7.10812C58.4842 6.25001 59.1222 5.67921 59.9982 5.67921C60.8742 5.67921 61.5242 6.2615 61.6322 7.10812H58.3542Z" fill="white"/>
<path d="M67.1706 4.57788C66.3266 4.57788 65.6226 4.86328 65.1806 5.40343V4.64492H63.8926V10.5176H65.2446V7.54871C65.2446 6.37264 65.8946 5.77885 66.8566 5.77885C67.7226 5.77885 68.2306 6.28453 68.2306 7.33035V10.5195H69.5826V7.15413C69.5826 5.38428 68.5546 4.5798 67.1706 4.5798V4.57788Z" fill="white"/>
<path d="M73.6286 4.57788C71.8546 4.57788 70.5566 5.82099 70.5566 7.57935C70.5566 9.33772 71.8546 10.5923 73.6286 10.5923C75.4026 10.5923 76.7126 9.33772 76.7126 7.57935C76.7126 5.82099 75.4246 4.57788 73.6286 4.57788ZM73.6286 9.41625C72.6546 9.41625 71.9186 8.7018 71.9186 7.57935C71.9186 6.45691 72.6546 5.74246 73.6286 5.74246C74.6026 5.74246 75.3486 6.45691 75.3486 7.57935C75.3486 8.7018 74.6126 9.41625 73.6286 9.41625Z" fill="white"/>
<path d="M80.8885 4.57788C80.0985 4.57788 79.4285 4.8537 78.9745 5.41301V4.64301H77.6865V12.6495H79.0385V9.80125C79.5045 10.3395 80.1525 10.5923 80.8885 10.5923C82.5765 10.5923 83.8205 9.40475 83.8205 7.57935C83.8205 5.75395 82.5765 4.57788 80.8885 4.57788ZM80.7365 9.41625C79.7625 9.41625 79.0165 8.70179 79.0165 7.57935C79.0165 6.45691 79.7625 5.74246 80.7365 5.74246C81.7105 5.74246 82.4465 6.45691 82.4465 7.57935C82.4465 8.70179 81.7105 9.41625 80.7365 9.41625Z" fill="white"/>
<path d="M91.9847 5.41496C91.5307 4.85374 90.8587 4.57983 90.0707 4.57983C88.3827 4.57983 87.1387 5.7674 87.1387 7.58131C87.1387 9.39522 88.3827 10.5943 90.0707 10.5943C90.8067 10.5943 91.4547 10.3414 91.9207 9.8032V10.5177H93.2727V4.64496H91.9847V5.41496ZM90.2207 9.4182C89.2467 9.4182 88.5107 8.70375 88.5107 7.58131C88.5107 6.45887 89.2467 5.74441 90.2207 5.74441C91.1947 5.74441 91.9407 6.45887 91.9407 7.58131C91.9407 8.70375 91.1947 9.4182 90.2207 9.4182Z" fill="white"/>
<path d="M86.1342 2.35596H84.7822V10.5157H86.1342V2.35596Z" fill="white"/>
<path d="M97.6525 4.57788C96.8085 4.57788 96.1045 4.86328 95.6625 5.40343V4.64492H94.3745V10.5176H95.7265V7.54871C95.7265 6.37264 96.3765 5.77885 97.3385 5.77885C98.2045 5.77885 98.7125 6.28453 98.7125 7.33035V10.5195H100.065V7.15413C100.065 5.38428 99.0365 4.5798 97.6525 4.5798V4.57788Z" fill="white"/>
</g>
<defs>
<clipPath id="clip0_538_23032">
<rect width="100" height="13" fill="white" transform="translate(0.0644531)"/>
</clipPath>
</defs>
</svg>
