<svg width="78" height="76" viewBox="0 0 78 76" fill="none" xmlns="http://www.w3.org/2000/svg">
<g id="Group 35624">
<g id="Group 35617">
<path id="Vector" d="M76.7778 32.6641H57.0716C55.6548 32.6641 54.337 33.3877 53.5752 34.5836C52.8135 35.7796 52.7221 37.2802 53.3162 38.5599L56.3708 45.088C57.7876 48.1197 58.5341 51.5019 58.5341 54.8992C58.5341 66.2263 50.0865 74.7654 38.8889 74.7654C27.6913 74.7654 19.2436 66.2186 19.2436 54.8992C19.2436 51.5019 19.9901 48.1197 21.407 45.088L24.4539 38.5599C25.0557 37.2802 24.9567 35.7796 24.1949 34.5836C23.4332 33.3877 22.1154 32.6641 20.6986 32.6641H1" stroke="#279FB9" stroke-width="2" stroke-linecap="round" stroke-linejoin="round"/>
</g>
<g id="Group 35619">
<path id="Vector_2" d="M31.0815 38.5865L31.0818 38.5859L38.9094 21.9941L46.737 38.5859L46.7373 38.5865C47.422 40.0354 47.8188 41.7014 47.8188 43.4703C47.8188 46.3161 46.8047 48.5458 45.2221 50.0659C43.6328 51.5926 41.4118 52.4589 38.9094 52.4589C36.407 52.4589 34.186 51.5926 32.5967 50.0659C31.0141 48.5458 30 46.3161 30 43.4703C30 41.7014 30.3968 40.0354 31.0815 38.5865Z" stroke="#279FB9" stroke-width="2"/>
<path id="Vector 3" d="M38.9998 21.7452C40.4712 18.2741 45.1826 9.20981 52.2563 0.721741" stroke="#279FB9" stroke-width="2"/>
</g>
<g id="Group 35623">
<g id="Group 35621">
<line id="Line 198" x1="33.6473" y1="65.1973" x2="33.6473" y2="57.453" stroke="#279FB9" stroke-width="1.6"/>
<g id="Group 35620">
<line id="Line 199" x1="30.4343" y1="59.7605" x2="34.1432" y2="56.0516" stroke="#279FB9" stroke-width="1.6"/>
<line id="Line 200" x1="36.7859" y1="59.8333" x2="33.5188" y2="56.5662" stroke="#279FB9" stroke-width="1.6"/>
</g>
</g>
<g id="Group 35622">
<line id="Line 198_2" x1="44.2962" y1="65.1973" x2="44.2962" y2="57.453" stroke="#279FB9" stroke-width="1.6"/>
<g id="Group 35620_2">
<line id="Line 199_2" x1="41.2087" y1="59.8171" x2="44.8792" y2="56.1467" stroke="#279FB9" stroke-width="1.6"/>
<line id="Line 200_2" x1="47.4338" y1="59.8333" x2="44.1667" y2="56.5662" stroke="#279FB9" stroke-width="1.6"/>
</g>
</g>
</g>
</g>
</svg>
