<svg width="72" height="72" viewBox="0 0 72 72" fill="none" xmlns="http://www.w3.org/2000/svg">
<g id="Group 35625">
<path id="Vector" d="M4.04144 1.55469H60.6128C61.9862 1.55469 63.0986 2.66713 63.0986 4.04047V61.5178C63.0986 62.3911 62.392 63.0977 61.5187 63.0977H4.04144C2.6681 63.0977 1.55566 61.9852 1.55566 60.6119V4.04047C1.55566 2.66713 2.6681 1.55469 4.04144 1.55469Z" stroke="#279FB9" stroke-width="2" stroke-linecap="round" stroke-linejoin="round"/>
<path id="Vector_2" d="M70.4448 8.90039V66.7249C70.4448 68.7803 68.7781 70.4434 66.7264 70.4434H8.90186" stroke="#279FB9" stroke-width="2" stroke-linejoin="round"/>
<g id="Group 35626">
<path id="Vector_3" d="M32.5116 22.0319H53.0612C53.6166 22.0319 54.1196 21.707 54.3711 21.2145C54.6226 20.7115 54.5493 20.1247 54.2244 19.6741C52.5687 17.5049 50.6196 15.6081 48.4609 14.0363C46.1555 12.3491 43.609 11.0392 40.9054 10.1799C38.2332 9.29969 35.4038 8.82812 32.5116 8.82812C29.6194 8.82812 26.79 9.29969 24.1178 10.1799C21.4142 11.0497 18.8677 12.3491 16.5623 14.0363C14.4036 15.6081 12.4545 17.4944 10.7988 19.6741C10.4635 20.1247 10.4215 20.7115 10.6521 21.2145C10.9036 21.728 11.4171 22.0319 11.962 22.0319H32.5116Z" stroke="#279FB9" stroke-width="2" stroke-linecap="round" stroke-linejoin="round"/>
<path id="Vector_4" d="M32.5112 22.031L35.4454 13.2285" stroke="#279FB9" stroke-width="2" stroke-linecap="round" stroke-linejoin="round"/>
<path id="Vector_5" d="M32.5112 8.82812V11.7623" stroke="#279FB9" stroke-width="2" stroke-linecap="round" stroke-linejoin="round"/>
<path id="Vector_6" d="M24.1172 10.1797L25.0289 12.9671" stroke="#279FB9" stroke-width="2" stroke-linecap="round" stroke-linejoin="round"/>
<path id="Vector_7" d="M40.9053 10.1797L39.9937 12.9671" stroke="#279FB9" stroke-width="2" stroke-linecap="round" stroke-linejoin="round"/>
<path id="Vector_8" d="M16.5615 14.0371L18.2906 16.4159" stroke="#279FB9" stroke-width="2" stroke-linecap="round" stroke-linejoin="round"/>
<path id="Vector_9" d="M48.4605 14.0371L46.7314 16.4159" stroke="#279FB9" stroke-width="2" stroke-linecap="round" stroke-linejoin="round"/>
</g>
</g>
</svg>
