<svg width="72" height="71" viewBox="0 0 72 71" fill="none" xmlns="http://www.w3.org/2000/svg">
<g id="Group 35605">
<g id="Group">
<path id="Vector" d="M42.8936 41.7576V59.8756C42.8936 61.8011 44.0855 63.4992 45.8276 64.0457L62.1339 69.1657C65.8602 70.3357 69.7222 67.6546 70.1183 63.5469C70.3347 61.306 70.4447 59.0247 70.4447 56.7068C70.4447 38.7575 63.8137 22.7593 53.4673 12.3836C49.4769 8.38225 42.8936 11.4961 42.8936 17.3239V26.5223" stroke="#279FB9" stroke-width="2" stroke-linejoin="round"/>
<path id="Vector_2" d="M29.1068 41.6585V59.8756C29.1068 61.8011 27.9148 63.4992 26.1727 64.0456L9.86649 69.1656C6.14019 70.3356 2.27818 67.6546 1.88208 63.5468C1.66569 61.3059 1.55566 59.0247 1.55566 56.7067C1.55566 38.7574 8.18672 22.7593 18.5331 12.3836C22.5234 8.38219 29.1068 11.496 29.1068 17.3238V26.4672" stroke="#279FB9" stroke-width="2" stroke-linejoin="round"/>
</g>
<g id="Group_2">
<path id="Vector_3" d="M35.958 0.555542V26.5663L51.9782 44.3836" stroke="#279FB9" stroke-width="2" stroke-linejoin="round"/>
<path id="Vector_4" d="M35.9577 26.5662L19.9375 44.3835" stroke="#279FB9" stroke-width="2" stroke-linejoin="round"/>
</g>
</g>
</svg>
