<svg width="74" height="72" viewBox="0 0 74 72" fill="none" xmlns="http://www.w3.org/2000/svg">
<g id="Group 35631">
<g id="Group 35630">
<path id="Vector" d="M24.5385 70.0699C22.8284 70.0699 21.4268 68.6682 21.4268 66.9581V38.9245C21.4268 37.2144 22.8284 35.8127 24.5385 35.8127C26.2485 35.8127 27.6502 37.2144 27.6502 38.9245V66.9581C27.6502 68.6682 26.2485 70.0699 24.5385 70.0699Z" stroke="#279FB9" stroke-width="2" stroke-linecap="round" stroke-linejoin="round"/>
<path id="Vector_2" d="M30.7719 70.0699C29.0618 70.0699 27.6602 68.6682 27.6602 66.9581V38.9245C27.6602 37.2144 29.0618 35.8127 30.7719 35.8127C32.4819 35.8127 33.8836 37.2144 33.8836 38.9245V66.9581C33.8836 68.6682 32.4819 70.0699 30.7719 70.0699Z" stroke="#279FB9" stroke-width="2" stroke-linecap="round" stroke-linejoin="round"/>
<g id="Vector_3">
<mask id="path-3-inside-1_660_3816" fill="white">
<path d="M21.4271 56.053H15.1943V49.8202H21.4271"/>
</mask>
<path d="M15.1943 56.053H14.1943V57.053H15.1943V56.053ZM15.1943 49.8202V48.8202H14.1943V49.8202H15.1943ZM21.4271 55.053H15.1943V57.053H21.4271V55.053ZM16.1943 56.053V49.8202H14.1943V56.053H16.1943ZM15.1943 50.8202H21.4271V48.8202H15.1943V50.8202Z" fill="#279FB9" mask="url(#path-3-inside-1_660_3816)"/>
</g>
<path id="Vector_4" d="M21.4271 56.053H15.1943V49.8202H21.4271" stroke="#279FB9" stroke-width="2" stroke-linecap="round" stroke-linejoin="round"/>
<path id="Vector_5" d="M54.1334 49.8296H33.8838V56.0624H54.1334V49.8296Z" stroke="#279FB9" stroke-width="2" stroke-linecap="round" stroke-linejoin="round"/>
<path id="Vector_6" d="M63.477 70.0699C65.187 70.0699 66.5887 68.6682 66.5887 66.9581V38.9245C66.5887 37.2144 65.187 35.8127 63.477 35.8127C61.7669 35.8127 60.3652 37.2144 60.3652 38.9245V66.9581C60.3652 68.6682 61.7669 70.0699 63.477 70.0699Z" stroke="#279FB9" stroke-width="2" stroke-linecap="round" stroke-linejoin="round"/>
<path id="Vector_7" d="M57.2445 70.0699C58.9546 70.0699 60.3563 68.6682 60.3563 66.9581V38.9245C60.3563 37.2144 58.9546 35.8127 57.2445 35.8127C55.5345 35.8127 54.1328 37.2144 54.1328 38.9245V66.9581C54.1328 68.6682 55.5345 70.0699 57.2445 70.0699Z" stroke="#279FB9" stroke-width="2" stroke-linecap="round" stroke-linejoin="round"/>
<g id="Vector_8">
<mask id="path-9-inside-2_660_3816" fill="white">
<path d="M66.5889 56.053H72.8217V49.8202H66.5889"/>
</mask>
<path d="M72.8217 56.053V57.053H73.8217V56.053H72.8217ZM72.8217 49.8202H73.8217V48.8202H72.8217V49.8202ZM66.5889 57.053H72.8217V55.053H66.5889V57.053ZM73.8217 56.053V49.8202H71.8217V56.053H73.8217ZM72.8217 48.8202H66.5889V50.8202H72.8217V48.8202Z" fill="#279FB9" mask="url(#path-9-inside-2_660_3816)"/>
</g>
<path id="Vector_9" d="M66.5889 56.053H72.8217V49.8202H66.5889" stroke="#279FB9" stroke-width="2" stroke-linecap="round" stroke-linejoin="round"/>
</g>
<g id="Group 35629">
<path id="Vector_10" d="M50.6291 32.1683C48.4798 28.4491 45.4615 25.272 41.8452 22.9359L44.5364 13.7969C45.312 10.8534 44.7046 7.76967 42.8544 5.35877C41.0042 2.94788 38.1821 1.55554 35.1265 1.55554H20.1752C17.1195 1.55554 14.3162 2.93853 12.4473 5.35877C10.597 7.76967 9.97095 10.8534 10.7839 13.881L13.4284 22.8705C6.06493 27.5521 1.17773 35.794 1.17773 45.1852C1.17773 53.2402 4.77538 60.4449 10.4475 65.2947M19.2314 17.0301C18.5119 17.0301 17.8951 16.5442 17.7176 15.862L16.7831 12.1896C16.5028 11.1337 16.7177 10.0217 17.3905 9.15266C18.0633 8.28362 19.0725 7.77901 20.1659 7.77901H35.1171C36.2104 7.77901 37.2196 8.27427 37.8925 9.15266C38.5653 10.0217 38.7802 11.1337 38.5185 12.1149L37.3692 15.9461C37.1636 16.6003 36.5562 17.0488 35.874 17.0488H19.2127L19.2407 17.0301H19.2314Z" stroke="#279FB9" stroke-width="2" stroke-linecap="round" stroke-linejoin="round"/>
<path id="Vector_11" d="M15.7552 21.5903C7.11152 25.9542 1.17773 34.9063 1.17773 45.2507C1.17773 56.6511 8.40107 66.3414 18.5119 70.0792H36.7991C43.2936 67.6776 48.6013 62.8185 51.5635 56.623" stroke="#279FB9" stroke-width="2" stroke-linecap="round" stroke-linejoin="round"/>
<path id="Vector_12" d="M54.1335 45.2507C54.1335 34.9717 48.2744 26.0664 39.7148 21.6744" stroke="#279FB9" stroke-width="2" stroke-linecap="round" stroke-linejoin="round"/>
</g>
</g>
</svg>
