<svg width="64" height="77" viewBox="0 0 64 77" fill="none" xmlns="http://www.w3.org/2000/svg">
<g id="Group 35628">
<path id="Vector" d="M24.5944 17.8199C28.0712 18.2873 31.7336 18.345 34.871 16.5074C36.4077 15.6046 37.6626 14.2536 38.2645 12.5696C38.7959 11.0906 38.7639 9.64992 38.4181 8.30532C37.4321 4.43161 33.8209 1.80005 29.8255 1.80005H21.3994" stroke="#279FB9" stroke-width="2" stroke-linejoin="round"/>
<path id="Vector_2" d="M24.166 62.5692C27.9373 73.2364 44.399 76.3673 55.1749 68.3574C61.7762 63.4464 63.7227 54.8218 62.7751 46.9527C61.2128 33.9742 54.317 21.6936 38.7325 12.5183" stroke="#279FB9" stroke-width="2" stroke-linecap="round" stroke-linejoin="round"/>
<path id="Vector_3" d="M3.28516 66.6096C10.9557 69.1515 21.3219 70.7522 28.2754 68.4536" stroke="#279FB9" stroke-width="2" stroke-linejoin="round"/>
<path id="Vector_4" d="M1 3.0166C8.60656 22.1995 8.67059 39.6536 4.98256 58.3691C4.06055 63.0367 1.94122 68.9466 4.01573 73.23C4.01573 73.23 24.1526 79.556 35.4088 72.0903" stroke="#279FB9" stroke-width="2" stroke-linecap="round" stroke-linejoin="round"/>
<path id="Vector_5" d="M59.0156 52.2799V50.4231" stroke="#279FB9" stroke-width="2" stroke-linecap="round" stroke-linejoin="round"/>
<path id="Vector_6" d="M32.8799 10.0724C32.8799 9.79068 32.6494 9.56018 32.3677 9.56018C32.086 9.56018 31.8555 9.79068 31.8555 10.0724C31.8555 10.3541 32.086 10.5846 32.3677 10.5846C32.6494 10.5846 32.8799 10.3541 32.8799 10.0724Z" stroke="#279FB9" stroke-width="2" stroke-linejoin="round"/>
</g>
</svg>
