<svg width="60" height="57" viewBox="0 0 60 57" fill="none" xmlns="http://www.w3.org/2000/svg">
<path fill-rule="evenodd" clip-rule="evenodd" d="M11.3966 28.1084V50.1824C4.46339 45.0348 0 37.0773 0 28.1333V28.1167C0 12.5912 13.4255 0 29.9912 0H30.0176C41.1144 0 50.7909 5.66976 55.9688 14.0666L46.0982 19.4048C42.8786 14.191 36.8803 10.6847 29.9912 10.6847C19.7236 10.6847 11.4055 18.4847 11.3878 28.1084H11.3966ZM30 34.8723C33.9782 34.8723 37.1979 31.8468 37.1979 28.125C37.1979 24.4032 33.9782 21.3777 30 21.3777C26.0218 21.3777 22.8021 24.4032 22.8021 28.125C22.8021 31.8551 26.0306 34.8806 30 34.8806V34.8723ZM41.1497 28.1084L46.2923 36.5468C43.1255 41.9264 37.0215 45.5653 30 45.5653C27.4508 45.5653 25.0162 45.0846 22.8021 44.2059V55.4294C25.1044 55.9599 27.5125 56.25 29.9912 56.25H30.0088C46.5745 56.25 60 43.6588 60 28.125V28.1084H41.1497Z" fill="white"/>
</svg>
