<svg width="50" height="50" viewBox="0 0 50 50" fill="none" xmlns="http://www.w3.org/2000/svg">
<path d="M33.1654 14.1668C35.9268 14.1668 38.1653 11.9282 38.1653 9.16689C38.1653 6.40553 35.9268 4.16699 33.1654 4.16699C30.4041 4.16699 28.1655 6.40553 28.1655 9.16689C28.1655 11.9282 30.4041 14.1668 33.1654 14.1668Z" stroke="#161616" stroke-width="3" stroke-miterlimit="2"/>
<path d="M40.1657 23.1667H32.5358C31.9758 23.1667 31.4359 22.9267 31.0559 22.5167L25.716 16.7368C25.066 16.0268 24.006 15.8768 23.186 16.3768L15.7362 20.9567C15.1062 21.3467 15.1062 22.2667 15.7362 22.6567L23.196 27.2266C23.786 27.5866 24.156 28.2366 24.156 28.9366L24.166 38.1664" stroke="#161616" stroke-width="3" stroke-miterlimit="2" stroke-linecap="round" stroke-linejoin="round"/>
<path d="M36.6664 44.1657C40.8084 44.1657 44.1662 40.8079 44.1662 36.6659C44.1662 32.5238 40.8084 29.166 36.6664 29.166C32.5243 29.166 29.1665 32.5238 29.1665 36.6659C29.1665 40.8079 32.5243 44.1657 36.6664 44.1657Z" stroke="#279FB9" stroke-width="3"/>
<path d="M11.6659 44.1657C15.8079 44.1657 19.1657 40.8079 19.1657 36.6659C19.1657 32.5238 15.8079 29.166 11.6659 29.166C7.52381 29.166 4.16602 32.5238 4.16602 36.6659C4.16602 40.8079 7.52381 44.1657 11.6659 44.1657Z" stroke="#161616" stroke-width="3"/>
</svg>
