<svg width="72" height="79" viewBox="0 0 72 79" fill="none" xmlns="http://www.w3.org/2000/svg">
<g id="Group 35613">
<path id="Vector" d="M42.6514 60.856L39.956 59.5888L38.8667 59.0856L37.2144 58.3122C36.2821 58.0047 35.1929 58.0047 34.2606 58.3122L32.5991 59.0856L31.5098 59.5888L28.8145 60.856" stroke="#279FB9" stroke-width="2" stroke-linecap="round" stroke-linejoin="round"/>
<path id="Vector_2" d="M32.5154 53.6438L30.7339 54.4917L27.54 56.0105" stroke="#279FB9" stroke-width="2" stroke-linecap="round" stroke-linejoin="round"/>
<path id="Vector_3" d="M43.9344 56.0198L40.7405 54.501L38.959 53.6531" stroke="#279FB9" stroke-width="2" stroke-linecap="round" stroke-linejoin="round"/>
<path id="Vector_4" d="M38.8105 59.2252L38.8936 67.6299C39.0967 70.0712 39.9552 71.5713 42.2167 72.9877C44.4505 74.3853 46.6013 73.7424 49.8044 74.7394C52.0105 75.4196 53.5705 76.8453 55.9244 77.1062C57.2813 77.2552 58.5828 76.575 59.0997 75.4848C64.0844 64.8998 52.149 46.0311 43.4813 46.0311C40.7767 46.0311 39.3921 49.3203 38.9675 53.6531L38.9121 38.4464" stroke="#279FB9" stroke-width="2" stroke-linecap="round" stroke-linejoin="round"/>
<path id="Vector_5" d="M32.5626 38.4372L32.5072 53.6439C32.0733 49.3204 30.6979 46.0219 27.9933 46.0219C19.3164 46.0219 7.38107 64.8999 12.3657 75.4757C12.8826 76.5659 14.1841 77.2461 15.5411 77.097C17.8857 76.8361 19.4457 75.4104 21.661 74.7302C24.8641 73.7425 27.0149 74.3762 29.2487 72.9785C31.5195 71.5622 32.3687 70.062 32.5718 67.6207L32.6549 59.2253" stroke="#279FB9" stroke-width="2" stroke-linecap="round" stroke-linejoin="round"/>
<path id="Vector_6" d="M69.8909 70.6303C69.4848 64.8066 69.0325 57.576 67.7494 54.0259C66.6048 50.8392 64.1402 48.3047 61.0109 47.0748L45.5494 41.0088C44.5248 40.6082 43.851 39.6112 43.851 38.5117V34.7566H47.5248C48.5494 34.7566 49.4079 33.9739 49.5002 32.9489C49.6202 31.719 49.814 29.7249 50.1187 26.5755C50.1556 26.1935 50.4417 25.8767 50.8294 25.8114L52.8417 25.4853C53.1094 25.4853 53.3587 25.3362 53.4971 25.1126C53.6356 24.889 53.6633 24.6001 53.5525 24.3578L51.4479 19.4753C51.1248 18.7019 50.9771 17.8633 51.051 17.0247C51.051 8.66658 44.5987 1.78069 36.2633 1.15639C26.8756 0.457554 19.0479 7.93979 19.0479 17.267C19.0479 21.1339 20.0172 25.0287 22.7772 28.5602C24.3372 30.5635 27.3464 32.2221 27.3464 35.6511V38.6607C27.3464 39.7696 26.6725 40.7666 25.6479 41.1673L10.4357 47.0841C7.30643 48.314 4.84182 50.8485 3.6972 54.0352C2.42336 57.576 1.97105 64.816 1.55566 70.6396" stroke="#279FB9" stroke-width="2" stroke-linecap="round" stroke-linejoin="round"/>
<path id="Vector_7" d="M56.7188 29.259L59.9126 28.5974" stroke="#279FB9" stroke-width="2" stroke-linecap="round" stroke-linejoin="round"/>
<path id="Vector_8" d="M63.7803 27.5814L64.8141 27.3488" stroke="#279FB9" stroke-width="2" stroke-linecap="round" stroke-linejoin="round"/>
<path id="Vector_9" d="M56.5068 32.744L59.4053 32.9579" stroke="#279FB9" stroke-width="2" stroke-linecap="round" stroke-linejoin="round"/>
<path id="Vector_10" d="M63.0049 33.2563L65.1372 33.4331" stroke="#279FB9" stroke-width="2" stroke-linecap="round" stroke-linejoin="round"/>
<path id="Vector_11" d="M69.0322 33.7688L70.4445 33.8897" stroke="#279FB9" stroke-width="2" stroke-linecap="round" stroke-linejoin="round"/>
<path id="Vector_12" d="M55.9531 35.7629L58.3162 37.0115" stroke="#279FB9" stroke-width="2" stroke-linecap="round" stroke-linejoin="round"/>
<path id="Vector_13" d="M61.9619 38.9404L62.8111 39.369" stroke="#279FB9" stroke-width="2" stroke-linecap="round" stroke-linejoin="round"/>
</g>
</svg>
