<svg width="72" height="69" viewBox="0 0 72 69" fill="none" xmlns="http://www.w3.org/2000/svg">
<g id="Group 35611">
<g id="Group">
<path id="Vector" d="M1.55566 67.4666H33.1495C35.9128 67.4666 38.4773 65.5825 38.9239 62.8575C39.4927 59.3859 36.827 56.3783 33.4565 56.3783H36.7572C39.5206 56.3783 42.0886 54.4941 42.5352 51.7657C43.1039 48.2905 40.4382 45.2864 37.0677 45.2864H40.6685C43.4319 45.2864 45.9998 43.4023 46.4464 40.6738C47.0152 37.1987 44.3495 34.1945 40.979 34.1945H64.5933C67.3566 34.198 69.9211 32.3139 70.3677 29.5854C70.9365 26.1138 68.2708 23.1062 64.9003 23.1062L23.9383 23.0992C22.7799 23.0992 22.3088 21.6059 23.2614 20.9429L31.6527 15.4441C36.1362 12.2202 37.6783 8.47289 36.834 4.06964C36.4885 2.26578 34.3776 1.40397 32.7587 2.27624L1.55566 19.1007V67.4701V67.4666Z" stroke="#279FB9" stroke-width="2" stroke-linecap="round" stroke-linejoin="round"/>
<path id="Vector_2" d="M4.90918 67.4666H33.15C35.9133 67.4666 38.4778 65.5825 38.9244 62.8575C39.4932 59.3859 36.8275 56.3783 33.457 56.3783H36.7577C39.5211 56.3783 42.089 54.4941 42.5357 51.7657C43.1044 48.2905 40.4387 45.2864 37.0682 45.2864H40.669C43.4324 45.2864 46.0003 43.4023 46.4469 40.6738C47.0157 37.1987 44.35 34.1945 40.9795 34.1945H64.5938C67.3571 34.198 69.9216 32.3139 70.3682 29.5854C70.9369 26.1138 68.2713 23.1062 64.9008 23.1062L23.9387 23.0992C22.7804 23.0992 22.3093 21.6059 23.2619 20.9429L31.6531 15.4441C36.1366 12.2202 37.6788 8.47289 36.8345 4.06964C36.489 2.26578 34.3781 1.40397 32.7592 2.27624L4.90918 17.2933" stroke="#279FB9" stroke-width="2" stroke-linejoin="round"/>
</g>
<path id="Vector_3" d="M55.1025 55.2652C55.1025 60.4186 60.2978 64.3613 65.7373 62.1318C67.4051 61.4479 68.7519 60.0906 69.4497 58.4298C70.5139 55.8967 70.2138 53.4404 69.1008 51.5144H69.1043L63.3926 41.6158C63.0437 41.0122 62.1715 41.0122 61.8225 41.6158L56.1109 51.5109H56.1144C55.4759 52.617 55.1025 53.894 55.1025 55.2617V55.2652Z" stroke="#279FB9" stroke-width="2" stroke-linecap="round" stroke-linejoin="round"/>
</g>
</svg>
