<svg width="72" height="72" viewBox="0 0 72 72" fill="none" xmlns="http://www.w3.org/2000/svg">
<g id="Group 35625">
<path id="Vector" d="M4.04144 1.55554H60.6128C61.9862 1.55554 63.0986 2.66798 63.0986 4.04132V61.5186C63.0986 62.3919 62.392 63.0985 61.5187 63.0985H4.04144C2.6681 63.0985 1.55566 61.9861 1.55566 60.6127V4.04132C1.55566 2.66798 2.6681 1.55554 4.04144 1.55554Z" stroke="#279FB9" stroke-width="2" stroke-linecap="round" stroke-linejoin="round"/>
<path id="Vector_2" d="M70.4443 8.90161V66.7261C70.4443 68.7816 68.7776 70.4446 66.7259 70.4446H8.90137" stroke="#279FB9" stroke-width="2" stroke-linejoin="round"/>
<g id="Group 35626">
<path id="Vector_3" d="M32.5121 22.0326H53.0617C53.6171 22.0326 54.1201 21.7077 54.3716 21.2152C54.6231 20.7122 54.5498 20.1254 54.2249 19.6748C52.5692 17.5056 50.6201 15.6089 48.4614 14.037C46.1559 12.3499 43.6095 11.04 40.9059 10.1807C38.2337 9.30042 35.4043 8.82886 32.5121 8.82886C29.6198 8.82886 26.7905 9.30042 24.1183 10.1807C21.4147 11.0504 18.8682 12.3499 16.5628 14.037C14.4041 15.6089 12.455 17.4951 10.7993 19.6748C10.4639 20.1254 10.422 20.7122 10.6526 21.2152C10.9041 21.7287 11.4175 22.0326 11.9625 22.0326H32.5121Z" stroke="#279FB9" stroke-width="2" stroke-linecap="round" stroke-linejoin="round"/>
<path id="Vector_4" d="M32.5117 22.0327L35.4459 13.2302" stroke="#279FB9" stroke-width="2" stroke-linecap="round" stroke-linejoin="round"/>
<path id="Vector_5" d="M32.5117 8.82898V11.7631" stroke="#279FB9" stroke-width="2" stroke-linecap="round" stroke-linejoin="round"/>
<path id="Vector_6" d="M24.1172 10.1807L25.0289 12.9681" stroke="#279FB9" stroke-width="2" stroke-linecap="round" stroke-linejoin="round"/>
<path id="Vector_7" d="M40.9058 10.1807L39.9941 12.9681" stroke="#279FB9" stroke-width="2" stroke-linecap="round" stroke-linejoin="round"/>
<path id="Vector_8" d="M16.5625 14.037L18.2916 16.4158" stroke="#279FB9" stroke-width="2" stroke-linecap="round" stroke-linejoin="round"/>
<path id="Vector_9" d="M48.4605 14.037L46.7314 16.4158" stroke="#279FB9" stroke-width="2" stroke-linecap="round" stroke-linejoin="round"/>
</g>
</g>
</svg>
