<svg width="68" height="75" viewBox="0 0 68 75" fill="none" xmlns="http://www.w3.org/2000/svg">
<g id="Group 35627">
<path id="Vector" d="M61.123 36.4108C61.123 36.4108 52.8419 44.1012 33.9995 44.1012C15.1571 44.1012 6.87598 36.4108 6.87598 36.4108" stroke="#279FB9" stroke-width="2" stroke-linecap="round" stroke-linejoin="round"/>
<path id="Vector_2" d="M5.1709 43.4015C16.9086 50.7956 23.3259 50.14 32.0102 60.3267C32.5257 60.9255 33.2725 61.2092 34.0326 61.2029C34.7926 61.2092 35.5461 60.9255 36.0549 60.3267C44.7326 50.14 51.15 50.7956 62.8943 43.4015" stroke="#279FB9" stroke-width="2" stroke-linecap="round" stroke-linejoin="round"/>
<path id="Vector_3" d="M34 61.2091V73.7785" stroke="#279FB9" stroke-width="2" stroke-linecap="round" stroke-linejoin="round"/>
<g id="Group">
<path id="Vector_4" d="M11.3897 25.8523C10.742 27.5984 9.92909 29.4138 8.9179 31.2923C6.1355 36.4928 4.48984 42.1975 4.46341 48.041C4.43036 55.0127 5.97027 64.2034 11.9911 73.7786" stroke="#279FB9" stroke-width="2" stroke-linecap="round" stroke-linejoin="round"/>
<path id="Vector_5" d="M10.459 1.39429C10.459 1.39429 15.766 9.25488 12.6532 21.7927" stroke="#279FB9" stroke-width="2" stroke-linecap="round" stroke-linejoin="round"/>
<path id="Vector_6" d="M21.5616 27.863C9.86355 26.4195 1.62207 22.9399 1.62207 18.8867C1.62207 16.3148 4.9332 13.9762 10.3394 12.2427" stroke="#279FB9" stroke-width="2" stroke-linecap="round" stroke-linejoin="round"/>
<path id="Vector_7" d="M23.4448 23.5326L27.1657 28.6574L22.1494 32.4396" stroke="#279FB9" stroke-width="2" stroke-linecap="round" stroke-linejoin="round"/>
</g>
<g id="Group_2">
<path id="Vector_8" d="M56.6034 25.8523C57.2511 27.5984 58.064 29.4138 59.0752 31.2923C61.8576 36.4928 63.5032 42.1975 63.5296 48.041C63.5627 55.0127 62.0228 64.2034 56.002 73.7786" stroke="#279FB9" stroke-width="2" stroke-linecap="round" stroke-linejoin="round"/>
<path id="Vector_9" d="M57.5412 1.39429C57.5412 1.39429 52.2341 9.25488 55.347 21.7927" stroke="#279FB9" stroke-width="2" stroke-linecap="round" stroke-linejoin="round"/>
<path id="Vector_10" d="M46.4385 27.863C58.1365 26.4132 66.378 22.9399 66.378 18.8867C66.378 16.3148 63.0668 13.9762 57.6606 12.2427" stroke="#279FB9" stroke-width="2" stroke-linecap="round" stroke-linejoin="round"/>
<path id="Vector_11" d="M44.5483 23.5326L40.834 28.6574L45.8436 32.4396" stroke="#279FB9" stroke-width="2" stroke-linecap="round" stroke-linejoin="round"/>
</g>
</g>
</svg>
