<svg width="72" height="72" viewBox="0 0 72 72" fill="none" xmlns="http://www.w3.org/2000/svg">
<path d="M9.91504 70.4443V65.247C9.91504 61.3481 12.4898 58.2488 16.0953 58.2488C23.717 58.2488 24.722 65.9255 40.6733 65.9255C52.6083 65.9255 70.4449 52.1199 70.4449 28.2242C70.4449 12.4196 65.1339 1.55554 54.1011 1.55554C44.7079 1.55554 41.5645 12.4122 35.3256 12.4122C31.0453 12.4122 29.0573 9.1589 29.0573 5.35539V1.55921" stroke="#279FB9" stroke-width="2" stroke-linecap="round" stroke-linejoin="round"/>
<path d="M20.6979 1.5592V8.16492C20.6979 19.282 31.7307 20.3751 31.7307 33.5461C31.7307 41.8281 23.7202 48.1477 12.7792 48.1477C6.87765 48.1477 1.55566 52.9525 1.55566 60.9006V70.4443" stroke="#279FB9" stroke-width="2" stroke-linecap="round" stroke-linejoin="round"/>
<path d="M25.0996 53.2314C26.0056 53.7375 26.8345 54.2657 27.6121 54.7609C30.5977 56.6681 33.4219 58.469 40.6768 58.469C47.9317 58.469 60.1712 49.989 62.5516 33.7627C62.4159 33.6526 59.5733 31.4226 56.7234 31.4226C53.8736 31.4226 52.3404 32.5926 50.8806 33.759C49.4208 34.929 47.9574 36.0954 45.0378 36.0954C42.1182 36.0954 40.6584 34.9254 39.1987 33.759H39.1913" stroke="#279FB9" stroke-width="2" stroke-linecap="round" stroke-linejoin="round"/>
</svg>
