<svg width="72" height="61" viewBox="0 0 72 61" fill="none" xmlns="http://www.w3.org/2000/svg">
<g id="Group 35606">
<path id="Vector" d="M39.0588 30.9075C39.0588 53.1174 88.0293 1.06665 63.6311 1.06665H46.411C44.0137 1.06665 41.8812 2.21652 40.5397 3.99359C39.7766 5.00756 38.3445 5.00756 37.5779 3.99359C36.2364 2.21652 34.1074 1.06665 31.7066 1.06665H16.5597C8.27368 1.06665 1.55566 9.00771 1.55566 18.806V53.5111C1.55566 60.3406 9.13086 61.9296 11.563 55.0443C15.9081 42.7476 39.0553 48.612 39.0553 30.904V14.0079" stroke="#279FB9" stroke-width="2" stroke-linecap="round" stroke-linejoin="round"/>
<path id="Vector_2" d="M8.64258 46.504C12.4406 42.5073 17.7544 40.678 22.2842 39.1204C30.5214 36.2876 31.9675 35.0576 31.9675 30.9041V14.008M46.1422 27.8378C52.1494 23.9561 61.1079 13.6456 62.9965 8.15063" stroke="#279FB9" stroke-width="2" stroke-linejoin="round"/>
</g>
</svg>
