<svg width="260" height="69" viewBox="0 0 260 69" fill="none" xmlns="http://www.w3.org/2000/svg">
<g clip-path="url(#clip0_741_1301)">
<path d="M15.85 7.93C15.85 12.31 12.3 15.86 7.92 15.86C3.54 15.86 0 12.3 0 7.93C0 3.56 3.55 0 7.93 0C12.31 0 15.86 3.55 15.86 7.93H15.85Z" fill="#E1E1E1"/>
<path d="M7.93 0C5.82 0 3.81 0.83 2.32 2.32C0.84 3.81 0 5.82 0 7.93C0 10.04 0.84 12.05 2.32 13.54C3.81 15.03 5.82 15.86 7.93 15.86V0Z" fill="#279FB9"/>
<path d="M33.2899 7.93C33.2899 12.31 29.7399 15.86 25.3599 15.86C20.9799 15.86 17.4299 12.31 17.4299 7.93C17.4299 3.55 20.9899 0 25.3699 0C29.7499 0 33.2999 3.55 33.2999 7.93H33.2899Z" fill="#E1E1E1"/>
<path d="M50.7301 7.93C50.7301 12.31 47.1801 15.86 42.8001 15.86C38.4201 15.86 34.8701 12.31 34.8701 7.93C34.8701 3.55 38.4201 0 42.8001 0C47.1801 0 50.7301 3.55 50.7301 7.93Z" fill="#E1E1E1"/>
<path d="M68.1701 7.93C68.1701 12.31 64.6201 15.86 60.2401 15.86C55.8601 15.86 52.3101 12.31 52.3101 7.93C52.3101 3.55 55.8601 0 60.2401 0C64.6201 0 68.1701 3.55 68.1701 7.93Z" fill="#E1E1E1"/>
<path d="M85.61 7.93C85.61 12.31 82.06 15.86 77.68 15.86C73.3 15.86 69.75 12.31 69.75 7.93C69.75 3.55 73.3 0 77.68 0C82.06 0 85.61 3.55 85.61 7.93Z" fill="#E1E1E1"/>
<path d="M103.05 7.93C103.05 12.31 99.4999 15.86 95.1199 15.86C90.7399 15.86 87.1899 12.31 87.1899 7.93C87.1899 3.55 90.7399 0 95.1199 0C99.4999 0 103.05 3.55 103.05 7.93Z" fill="#E1E1E1"/>
<path d="M120.49 7.93C120.49 12.31 116.94 15.86 112.56 15.86C108.18 15.86 104.63 12.31 104.63 7.93C104.63 3.55 108.18 0 112.56 0C116.94 0 120.49 3.55 120.49 7.93Z" fill="#E1E1E1"/>
<path d="M137.93 7.93C137.93 12.31 134.38 15.86 130 15.86C125.62 15.86 122.07 12.31 122.07 7.93C122.07 3.55 125.62 0 130 0C134.38 0 137.93 3.55 137.93 7.93Z" fill="#E1E1E1"/>
<path d="M155.37 7.93C155.37 12.31 151.82 15.86 147.44 15.86C143.06 15.86 139.51 12.31 139.51 7.93C139.51 3.55 143.06 0 147.44 0C151.82 0 155.37 3.55 155.37 7.93Z" fill="#E1E1E1"/>
<path d="M172.8 7.93C172.8 12.31 169.25 15.86 164.87 15.86C160.49 15.86 156.94 12.31 156.94 7.93C156.94 3.55 160.49 0 164.87 0C169.25 0 172.8 3.55 172.8 7.93Z" fill="#E1E1E1"/>
<path d="M190.24 7.93C190.24 12.31 186.69 15.86 182.31 15.86C177.93 15.86 174.38 12.31 174.38 7.93C174.38 3.55 177.93 0 182.31 0C186.69 0 190.24 3.55 190.24 7.93Z" fill="#E1E1E1"/>
<path d="M207.68 7.93C207.68 12.31 204.13 15.86 199.75 15.86C195.37 15.86 191.82 12.31 191.82 7.93C191.82 3.55 195.37 0 199.75 0C204.13 0 207.68 3.55 207.68 7.93Z" fill="#E1E1E1"/>
<path d="M225.12 7.93C225.12 12.31 221.57 15.86 217.19 15.86C212.81 15.86 209.26 12.31 209.26 7.93C209.26 3.55 212.81 0 217.19 0C221.57 0 225.12 3.55 225.12 7.93Z" fill="#E1E1E1"/>
<path d="M242.56 7.93C242.56 12.31 239.01 15.86 234.63 15.86C230.25 15.86 226.7 12.31 226.7 7.93C226.7 3.55 230.25 0 234.63 0C239.01 0 242.56 3.55 242.56 7.93Z" fill="#E1E1E1"/>
<path d="M260 7.93C260 12.31 256.45 15.86 252.07 15.86C247.69 15.86 244.14 12.31 244.14 7.93C244.14 3.55 247.69 0 252.07 0C256.45 0 260 3.55 260 7.93Z" fill="#E1E1E1"/>
<path d="M15.85 25.3699C15.85 29.7499 12.3 33.2999 7.92 33.2999C3.54 33.2999 0 29.7399 0 25.3699C0 20.9999 3.55 17.4399 7.93 17.4399C12.31 17.4399 15.86 20.9899 15.86 25.3699H15.85Z" fill="#E1E1E1"/>
<path d="M33.2899 25.3699C33.2899 29.7499 29.7399 33.2999 25.3599 33.2999C20.9799 33.2999 17.4299 29.7499 17.4299 25.3699C17.4299 20.9899 20.9799 17.4399 25.3599 17.4399C29.7399 17.4399 33.2899 20.9899 33.2899 25.3699Z" fill="#E1E1E1"/>
<path d="M50.7301 25.3699C50.7301 29.7499 47.1801 33.2999 42.8001 33.2999C38.4201 33.2999 34.8701 29.7499 34.8701 25.3699C34.8701 20.9899 38.4201 17.4399 42.8001 17.4399C47.1801 17.4399 50.7301 20.9899 50.7301 25.3699Z" fill="#E1E1E1"/>
<path d="M68.1701 25.3699C68.1701 29.7499 64.6201 33.2999 60.2401 33.2999C55.8601 33.2999 52.3101 29.7499 52.3101 25.3699C52.3101 20.9899 55.8601 17.4399 60.2401 17.4399C64.6201 17.4399 68.1701 20.9899 68.1701 25.3699Z" fill="#E1E1E1"/>
<path d="M85.61 25.3699C85.61 29.7499 82.06 33.2999 77.68 33.2999C73.3 33.2999 69.75 29.7499 69.75 25.3699C69.75 20.9899 73.3 17.4399 77.68 17.4399C82.06 17.4399 85.61 20.9899 85.61 25.3699Z" fill="#E1E1E1"/>
<path d="M103.05 25.3699C103.05 29.7499 99.4999 33.2999 95.1199 33.2999C90.7399 33.2999 87.1899 29.7499 87.1899 25.3699C87.1899 20.9899 90.7399 17.4399 95.1199 17.4399C99.4999 17.4399 103.05 20.9899 103.05 25.3699Z" fill="#E1E1E1"/>
<path d="M120.49 25.3699C120.49 29.7499 116.94 33.2999 112.56 33.2999C108.18 33.2999 104.63 29.7499 104.63 25.3699C104.63 20.9899 108.18 17.4399 112.56 17.4399C116.94 17.4399 120.49 20.9899 120.49 25.3699Z" fill="#E1E1E1"/>
<path d="M137.93 25.3699C137.93 29.7499 134.38 33.2999 130 33.2999C125.62 33.2999 122.07 29.7499 122.07 25.3699C122.07 20.9899 125.62 17.4399 130 17.4399C134.38 17.4399 137.93 20.9899 137.93 25.3699Z" fill="#E1E1E1"/>
<path d="M155.37 25.3699C155.37 29.7499 151.82 33.2999 147.44 33.2999C143.06 33.2999 139.51 29.7499 139.51 25.3699C139.51 20.9899 143.06 17.4399 147.44 17.4399C151.82 17.4399 155.37 20.9899 155.37 25.3699Z" fill="#E1E1E1"/>
<path d="M172.8 25.3699C172.8 29.7499 169.25 33.2999 164.87 33.2999C160.49 33.2999 156.94 29.7499 156.94 25.3699C156.94 20.9899 160.49 17.4399 164.87 17.4399C169.25 17.4399 172.8 20.9899 172.8 25.3699Z" fill="#E1E1E1"/>
<path d="M190.24 25.3699C190.24 29.7499 186.69 33.2999 182.31 33.2999C177.93 33.2999 174.38 29.7499 174.38 25.3699C174.38 20.9899 177.93 17.4399 182.31 17.4399C186.69 17.4399 190.24 20.9899 190.24 25.3699Z" fill="#E1E1E1"/>
<path d="M207.68 25.3699C207.68 29.7499 204.13 33.2999 199.75 33.2999C195.37 33.2999 191.82 29.7499 191.82 25.3699C191.82 20.9899 195.37 17.4399 199.75 17.4399C204.13 17.4399 207.68 20.9899 207.68 25.3699Z" fill="#E1E1E1"/>
<path d="M225.12 25.3699C225.12 29.7499 221.57 33.2999 217.19 33.2999C212.81 33.2999 209.26 29.7499 209.26 25.3699C209.26 20.9899 212.81 17.4399 217.19 17.4399C221.57 17.4399 225.12 20.9899 225.12 25.3699Z" fill="#E1E1E1"/>
<path d="M242.56 25.3699C242.56 29.7499 239.01 33.2999 234.63 33.2999C230.25 33.2999 226.7 29.7499 226.7 25.3699C226.7 20.9899 230.25 17.4399 234.63 17.4399C239.01 17.4399 242.56 20.9899 242.56 25.3699Z" fill="#E1E1E1"/>
<path d="M260 25.3699C260 29.7499 256.45 33.2999 252.07 33.2999C247.69 33.2999 244.14 29.7499 244.14 25.3699C244.14 20.9899 247.69 17.4399 252.07 17.4399C256.45 17.4399 260 20.9899 260 25.3699Z" fill="#E1E1E1"/>
<path d="M15.85 42.8001C15.85 47.1801 12.3 50.7301 7.91999 50.7301C3.53999 50.7301 -0.0100098 47.1801 -0.0100098 42.8001C-0.0100098 38.4201 3.53999 34.8701 7.91999 34.8701C12.3 34.8701 15.85 38.4201 15.85 42.8001Z" fill="#E1E1E1"/>
<path d="M33.2899 42.8001C33.2899 47.1801 29.7399 50.7301 25.3599 50.7301C20.9799 50.7301 17.4299 47.1801 17.4299 42.8001C17.4299 38.4201 20.9799 34.8701 25.3599 34.8701C29.7399 34.8701 33.2899 38.4201 33.2899 42.8001Z" fill="#E1E1E1"/>
<path d="M50.7301 42.8001C50.7301 47.1801 47.1801 50.7301 42.8001 50.7301C38.4201 50.7301 34.8701 47.1801 34.8701 42.8001C34.8701 38.4201 38.4201 34.8701 42.8001 34.8701C47.1801 34.8701 50.7301 38.4201 50.7301 42.8001Z" fill="#E1E1E1"/>
<path d="M68.1701 42.8001C68.1701 47.1801 64.6201 50.7301 60.2401 50.7301C55.8601 50.7301 52.3101 47.1801 52.3101 42.8001C52.3101 38.4201 55.8601 34.8701 60.2401 34.8701C64.6201 34.8701 68.1701 38.4201 68.1701 42.8001Z" fill="#E1E1E1"/>
<path d="M85.61 42.8001C85.61 47.1801 82.06 50.7301 77.68 50.7301C73.3 50.7301 69.75 47.1801 69.75 42.8001C69.75 38.4201 73.3 34.8701 77.68 34.8701C82.06 34.8701 85.61 38.4201 85.61 42.8001Z" fill="#E1E1E1"/>
<path d="M103.05 42.8001C103.05 47.1801 99.4999 50.7301 95.1199 50.7301C90.7399 50.7301 87.1899 47.1801 87.1899 42.8001C87.1899 38.4201 90.7399 34.8701 95.1199 34.8701C99.4999 34.8701 103.05 38.4201 103.05 42.8001Z" fill="#E1E1E1"/>
<path d="M120.49 42.8001C120.49 47.1801 116.94 50.7301 112.56 50.7301C108.18 50.7301 104.63 47.1801 104.63 42.8001C104.63 38.4201 108.18 34.8701 112.56 34.8701C116.94 34.8701 120.49 38.4201 120.49 42.8001Z" fill="#E1E1E1"/>
<path d="M137.93 42.8001C137.93 47.1801 134.38 50.7301 130 50.7301C125.62 50.7301 122.07 47.1801 122.07 42.8001C122.07 38.4201 125.62 34.8701 130 34.8701C134.38 34.8701 137.93 38.4201 137.93 42.8001Z" fill="#E1E1E1"/>
<path d="M155.37 42.8001C155.37 47.1801 151.82 50.7301 147.44 50.7301C143.06 50.7301 139.51 47.1801 139.51 42.8001C139.51 38.4201 143.06 34.8701 147.44 34.8701C151.82 34.8701 155.37 38.4201 155.37 42.8001Z" fill="#E1E1E1"/>
<path d="M172.8 42.8001C172.8 47.1801 169.25 50.7301 164.87 50.7301C160.49 50.7301 156.94 47.1801 156.94 42.8001C156.94 38.4201 160.49 34.8701 164.87 34.8701C169.25 34.8701 172.8 38.4201 172.8 42.8001Z" fill="#E1E1E1"/>
<path d="M190.24 42.8001C190.24 47.1801 186.69 50.7301 182.31 50.7301C177.93 50.7301 174.38 47.1801 174.38 42.8001C174.38 38.4201 177.93 34.8701 182.31 34.8701C186.69 34.8701 190.24 38.4201 190.24 42.8001Z" fill="#E1E1E1"/>
<path d="M207.68 42.8001C207.68 47.1801 204.13 50.7301 199.75 50.7301C195.37 50.7301 191.82 47.1801 191.82 42.8001C191.82 38.4201 195.37 34.8701 199.75 34.8701C204.13 34.8701 207.68 38.4201 207.68 42.8001Z" fill="#E1E1E1"/>
<path d="M225.12 42.8001C225.12 47.1801 221.57 50.7301 217.19 50.7301C212.81 50.7301 209.26 47.1801 209.26 42.8001C209.26 38.4201 212.81 34.8701 217.19 34.8701C221.57 34.8701 225.12 38.4201 225.12 42.8001Z" fill="#E1E1E1"/>
<path d="M242.56 42.8001C242.56 47.1801 239.01 50.7301 234.63 50.7301C230.25 50.7301 226.7 47.1801 226.7 42.8001C226.7 38.4201 230.25 34.8701 234.63 34.8701C239.01 34.8701 242.56 38.4201 242.56 42.8001Z" fill="#E1E1E1"/>
<path d="M260 42.8001C260 47.1801 256.45 50.7301 252.07 50.7301C247.69 50.7301 244.14 47.1801 244.14 42.8001C244.14 38.4201 247.69 34.8701 252.07 34.8701C256.45 34.8701 260 38.4201 260 42.8001Z" fill="#E1E1E1"/>
<path d="M15.85 60.2401C15.85 64.6201 12.3 68.1701 7.91999 68.1701C3.53999 68.1701 -0.0100098 64.6201 -0.0100098 60.2401C-0.0100098 55.8601 3.53999 52.3101 7.91999 52.3101C12.3 52.3101 15.85 55.8601 15.85 60.2401Z" fill="#E1E1E1"/>
<path d="M33.2899 60.2401C33.2899 64.6201 29.7399 68.1701 25.3599 68.1701C20.9799 68.1701 17.4299 64.6201 17.4299 60.2401C17.4299 55.8601 20.9799 52.3101 25.3599 52.3101C29.7399 52.3101 33.2899 55.8601 33.2899 60.2401Z" fill="#E1E1E1"/>
<path d="M50.7301 60.2401C50.7301 64.6201 47.1801 68.1701 42.8001 68.1701C38.4201 68.1701 34.8701 64.6201 34.8701 60.2401C34.8701 55.8601 38.4201 52.3101 42.8001 52.3101C47.1801 52.3101 50.7301 55.8601 50.7301 60.2401Z" fill="#E1E1E1"/>
<path d="M68.1701 60.2401C68.1701 64.6201 64.6201 68.1701 60.2401 68.1701C55.8601 68.1701 52.3101 64.6201 52.3101 60.2401C52.3101 55.8601 55.8601 52.3101 60.2401 52.3101C64.6201 52.3101 68.1701 55.8601 68.1701 60.2401Z" fill="#E1E1E1"/>
<path d="M85.61 60.2401C85.61 64.6201 82.06 68.1701 77.68 68.1701C73.3 68.1701 69.75 64.6201 69.75 60.2401C69.75 55.8601 73.3 52.3101 77.68 52.3101C82.06 52.3101 85.61 55.8601 85.61 60.2401Z" fill="#E1E1E1"/>
<path d="M103.05 60.2401C103.05 64.6201 99.4999 68.1701 95.1199 68.1701C90.7399 68.1701 87.1899 64.6201 87.1899 60.2401C87.1899 55.8601 90.7399 52.3101 95.1199 52.3101C99.4999 52.3101 103.05 55.8601 103.05 60.2401Z" fill="#E1E1E1"/>
<path d="M120.49 60.2401C120.49 64.6201 116.94 68.1701 112.56 68.1701C108.18 68.1701 104.63 64.6201 104.63 60.2401C104.63 55.8601 108.18 52.3101 112.56 52.3101C116.94 52.3101 120.49 55.8601 120.49 60.2401Z" fill="#E1E1E1"/>
<path d="M137.93 60.2401C137.93 64.6201 134.38 68.1701 130 68.1701C125.62 68.1701 122.07 64.6201 122.07 60.2401C122.07 55.8601 125.62 52.3101 130 52.3101C134.38 52.3101 137.93 55.8601 137.93 60.2401Z" fill="#E1E1E1"/>
<path d="M155.37 60.2401C155.37 64.6201 151.82 68.1701 147.44 68.1701C143.06 68.1701 139.51 64.6201 139.51 60.2401C139.51 55.8601 143.06 52.3101 147.44 52.3101C151.82 52.3101 155.37 55.8601 155.37 60.2401Z" fill="#E1E1E1"/>
<path d="M172.8 60.2401C172.8 64.6201 169.25 68.1701 164.87 68.1701C160.49 68.1701 156.94 64.6201 156.94 60.2401C156.94 55.8601 160.49 52.3101 164.87 52.3101C169.25 52.3101 172.8 55.8601 172.8 60.2401Z" fill="#E1E1E1"/>
<path d="M190.24 60.2401C190.24 64.6201 186.69 68.1701 182.31 68.1701C177.93 68.1701 174.38 64.6201 174.38 60.2401C174.38 55.8601 177.93 52.3101 182.31 52.3101C186.69 52.3101 190.24 55.8601 190.24 60.2401Z" fill="#E1E1E1"/>
<path d="M207.68 60.2401C207.68 64.6201 204.13 68.1701 199.75 68.1701C195.37 68.1701 191.82 64.6201 191.82 60.2401C191.82 55.8601 195.37 52.3101 199.75 52.3101C204.13 52.3101 207.68 55.8601 207.68 60.2401Z" fill="#E1E1E1"/>
<path d="M225.12 60.2401C225.12 64.6201 221.57 68.1701 217.19 68.1701C212.81 68.1701 209.26 64.6201 209.26 60.2401C209.26 55.8601 212.81 52.3101 217.19 52.3101C221.57 52.3101 225.12 55.8601 225.12 60.2401Z" fill="#E1E1E1"/>
<path d="M242.56 60.2401C242.56 64.6201 239.01 68.1701 234.63 68.1701C230.25 68.1701 226.7 64.6201 226.7 60.2401C226.7 55.8601 230.25 52.3101 234.63 52.3101C239.01 52.3101 242.56 55.8601 242.56 60.2401Z" fill="#E1E1E1"/>
<path d="M260 60.2401C260 64.6201 256.45 68.1701 252.07 68.1701C247.69 68.1701 244.14 64.6201 244.14 60.2401C244.14 55.8601 247.69 52.3101 252.07 52.3101C256.45 52.3101 260 55.8601 260 60.2401Z" fill="#E1E1E1"/>
</g>
<defs>
<clipPath id="clip0_741_1301">
<rect width="260" height="68.17" fill="white"/>
</clipPath>
</defs>
</svg>
