<svg width="50" height="50" viewBox="0 0 50 50" fill="none" xmlns="http://www.w3.org/2000/svg">
<g clip-path="url(#clip0_777_8682)">
<path d="M50 0H0V50H50V0Z" fill="white" fill-opacity="0.01"/>
<path d="M25 25.0001V13.75M25 25.0001L15.1562 30.6833L25 25.0001ZM25 25.0001L34.8437 30.6833L25 25.0001Z" stroke="#161616" stroke-width="3" stroke-linecap="round" stroke-linejoin="round"/>
<path d="M15.625 17.5C15.625 19.5711 13.9461 21.25 11.875 21.25C9.80394 21.25 8.125 19.5711 8.125 17.5C8.125 15.429 9.80394 13.75 11.875 13.75C13.9461 13.75 15.625 15.429 15.625 17.5Z" stroke="#279FB9" stroke-width="3" stroke-linecap="round" stroke-linejoin="round"/>
<path d="M15.625 32.5C15.625 34.5711 13.9461 36.25 11.875 36.25C9.80394 36.25 8.125 34.5711 8.125 32.5C8.125 30.429 9.80394 28.75 11.875 28.75C13.9461 28.75 15.625 30.429 15.625 32.5Z" stroke="#161616" stroke-width="3" stroke-linecap="round" stroke-linejoin="round"/>
<path d="M28.7505 40C28.7505 42.0711 27.0715 43.75 25.0005 43.75C22.9295 43.75 21.2505 42.0711 21.2505 40C21.2505 37.929 22.9295 36.25 25.0005 36.25C27.0715 36.25 28.7505 37.929 28.7505 40Z" stroke="#161616" stroke-width="3" stroke-linecap="round" stroke-linejoin="round"/>
<path d="M41.875 32.5C41.875 34.5711 40.1961 36.25 38.125 36.25C36.054 36.25 34.375 34.5711 34.375 32.5C34.375 30.429 36.054 28.75 38.125 28.75C40.1961 28.75 41.875 30.429 41.875 32.5Z" stroke="#161616" stroke-width="3" stroke-linecap="round" stroke-linejoin="round"/>
<path d="M41.875 17.5C41.875 19.5711 40.1961 21.25 38.125 21.25C36.054 21.25 34.375 19.5711 34.375 17.5C34.375 15.429 36.054 13.75 38.125 13.75C40.1961 13.75 41.875 15.429 41.875 17.5Z" stroke="#161616" stroke-width="3" stroke-linecap="round" stroke-linejoin="round"/>
<path d="M28.7505 10C28.7505 12.0711 27.0715 13.75 25.0005 13.75C22.9295 13.75 21.2505 12.0711 21.2505 10C21.2505 7.92894 22.9295 6.25 25.0005 6.25C27.0715 6.25 28.7505 7.92894 28.7505 10Z" stroke="#161616" stroke-width="3" stroke-linecap="round" stroke-linejoin="round"/>
</g>
<defs>
<clipPath id="clip0_777_8682">
<rect width="50" height="50" fill="white"/>
</clipPath>
</defs>
</svg>
