<svg width="170" height="22" viewBox="0 0 170 22" fill="none" xmlns="http://www.w3.org/2000/svg">
<g clip-path="url(#clip0_538_23041)">
<path fill-rule="evenodd" clip-rule="evenodd" d="M4.3928 10.9919V19.624C1.7204 17.611 0 14.4992 0 11.0016V10.9951C0 4.92382 5.1748 0 11.56 0H11.5702C15.8474 0 19.5772 2.21718 21.573 5.50081L17.7684 7.58833C16.5274 5.54943 14.2154 4.17828 11.56 4.17828C7.6024 4.17828 4.3962 7.22853 4.3894 10.9919H4.3928ZM11.5634 13.637C13.0968 13.637 14.3378 12.4538 14.3378 10.9984C14.3378 9.54295 13.0968 8.35981 11.5634 8.35981C10.03 8.35981 8.789 9.54295 8.789 10.9984C8.789 12.4571 10.0334 13.6402 11.5634 13.6402V13.637ZM15.861 10.9919L17.8432 14.2917C16.6226 16.3955 14.2698 17.8185 11.5634 17.8185C10.5808 17.8185 9.6424 17.6305 8.789 17.2869V21.6759C9.6764 21.8833 10.6046 21.9968 11.56 21.9968H11.5668C17.952 21.9968 23.1268 17.0729 23.1268 10.9984V10.9919H15.861Z" fill="white"/>
<path d="M34.0512 4.02271L38.0632 13.3614H38.223L42.2316 4.02271H45.941V17.7926H43.0306V8.77797H42.9116L39.141 17.7342H37.1452L33.3746 8.73907H33.2556V17.7926H30.3418V4.02271H34.0512Z" fill="white"/>
<path d="M50.7827 17.7926H47.8281V4.02271H50.7011V9.27392H50.8201C51.3199 8.06484 52.4045 7.33551 54.0501 7.33551C56.3145 7.33551 57.8037 8.79094 57.8037 11.2156V17.7958H54.8491V11.7083C54.8491 10.4246 54.1317 9.67262 52.8941 9.67262C51.6565 9.67262 50.7793 10.4603 50.7793 11.8217V17.7926H50.7827Z" fill="white"/>
<path d="M66.5278 7.46509H69.4824V17.7925H66.6502V15.9286H66.5312C66.0416 17.1247 64.8754 17.9254 63.24 17.9254C61.0742 17.9254 59.5918 16.4635 59.5918 14.0453V7.46509H62.5464V13.5526C62.5464 14.7811 63.2842 15.5396 64.4402 15.5494C65.5214 15.5396 66.5346 14.8071 66.5346 13.4003V7.46509H66.5278Z" fill="white"/>
<path d="M71.3423 4.02271H74.2969V9.19612H74.3785C74.7865 8.35982 75.6433 7.33227 77.4691 7.33227C79.8627 7.33227 81.8687 9.10212 81.8755 12.6386C81.8687 16.0908 79.9409 17.9644 77.4691 17.9644C75.7045 17.9644 74.8035 16.9919 74.3785 16.1394H74.2595V17.7926H71.3457V4.02271H71.3423ZM76.5307 15.7212C78.0369 15.7115 78.8563 14.4473 78.8461 12.6191C78.8563 10.8234 78.0573 9.57538 76.5307 9.57538C75.0041 9.57538 74.2255 10.765 74.2391 12.6191C74.2289 14.483 75.0789 15.7083 76.5307 15.7212Z" fill="white"/>
<path d="M90.3552 6.70667C91.7356 6.70667 92.895 7.17345 93.9048 8.19452L95.4144 6.70667C94.2006 5.30959 92.3986 4.5835 90.2464 4.5835C86.2174 4.5835 83.2764 7.39387 83.2764 11.2837C83.2764 15.1734 86.2208 17.9838 90.209 17.9838C92.0314 17.9838 93.9048 17.4263 95.2478 16.3274V11.1345H90.7224V13.1702H92.9834V15.1929C92.1572 15.6759 91.2562 15.8639 90.3348 15.8639C87.6114 15.8639 85.6802 13.9287 85.6802 11.2869C85.6802 8.64508 87.6114 6.70991 90.3518 6.70991L90.3552 6.70667Z" fill="white"/>
<path d="M101.888 7.74714C98.9637 7.74714 96.8115 9.87031 96.8115 12.8266C96.8115 15.7828 98.9467 17.9254 102.238 17.9254C103.931 17.9254 105.308 17.3679 106.192 16.3047L104.961 14.8719C104.261 15.598 103.397 15.9514 102.296 15.9514C100.586 15.9514 99.3887 15.021 99.1133 13.5689H106.821C106.838 13.3452 106.859 13.0664 106.859 12.8817C106.859 9.77307 104.761 7.7439 101.891 7.7439L101.888 7.74714ZM99.0929 12.0291C99.3139 10.577 100.399 9.611 101.888 9.611C103.377 9.611 104.482 10.5964 104.666 12.0291H99.0929Z" fill="white"/>
<path d="M114.08 7.74707C112.646 7.74707 111.449 8.23005 110.697 9.14415V7.86052H108.508V17.7989H110.806V12.7746C110.806 10.7843 111.911 9.77949 113.547 9.77949C115.019 9.77949 115.882 10.6352 115.882 12.4051V17.8022H118.181V12.1069C118.181 9.11174 116.433 7.75031 114.08 7.75031V7.74707Z" fill="white"/>
<path d="M125.059 7.74707C122.043 7.74707 119.836 9.8508 119.836 12.8265C119.836 15.8022 122.043 17.9254 125.059 17.9254C128.075 17.9254 130.302 15.8022 130.302 12.8265C130.302 9.8508 128.112 7.74707 125.059 7.74707ZM125.059 15.9351C123.403 15.9351 122.152 14.726 122.152 12.8265C122.152 10.927 123.403 9.7179 125.059 9.7179C126.715 9.7179 127.983 10.927 127.983 12.8265C127.983 14.726 126.732 15.9351 125.059 15.9351Z" fill="white"/>
<path d="M137.401 7.74707C136.058 7.74707 134.919 8.21385 134.147 9.16036V7.85728H131.958V21.4067H134.256V16.5866C135.048 17.4975 136.15 17.9254 137.401 17.9254C140.271 17.9254 142.385 15.9156 142.385 12.8265C142.385 9.73735 140.271 7.74707 137.401 7.74707ZM137.143 15.9351C135.487 15.9351 134.219 14.726 134.219 12.8265C134.219 10.927 135.487 9.7179 137.143 9.7179C138.798 9.7179 140.05 10.927 140.05 12.8265C140.05 14.726 138.798 15.9351 137.143 15.9351Z" fill="white"/>
<path d="M156.264 9.16378C155.492 8.21402 154.35 7.75049 153.01 7.75049C150.141 7.75049 148.026 9.76021 148.026 12.8299C148.026 15.8996 150.141 17.9288 153.01 17.9288C154.261 17.9288 155.363 17.5009 156.155 16.59V17.7991H158.454V7.8607H156.264V9.16378ZM153.265 15.9385C151.609 15.9385 150.358 14.7294 150.358 12.8299C150.358 10.9304 151.609 9.72131 153.265 9.72131C154.921 9.72131 156.189 10.9304 156.189 12.8299C156.189 14.7294 154.921 15.9385 153.265 15.9385Z" fill="white"/>
<path d="M146.319 3.98706H144.021V17.7958H146.319V3.98706Z" fill="white"/>
<path d="M165.9 7.74707C164.465 7.74707 163.268 8.23005 162.517 9.14415V7.86052H160.327V17.7989H162.626V12.7746C162.626 10.7843 163.731 9.77949 165.366 9.77949C166.838 9.77949 167.702 10.6352 167.702 12.4051V17.8022H170V12.1069C170 9.11174 168.253 7.75031 165.9 7.75031V7.74707Z" fill="white"/>
</g>
<defs>
<clipPath id="clip0_538_23041">
<rect width="170" height="22" fill="white"/>
</clipPath>
</defs>
</svg>
