<svg width="24" height="24" viewBox="0 0 24 24" fill="none" xmlns="http://www.w3.org/2000/svg">
<path d="M22.9065 10.3896C22.8016 10.2544 22.6671 10.1452 22.5134 10.0701C22.3597 9.99512 22.1908 9.95638 22.0197 9.95691H18.9166V7.5C18.9163 7.21278 18.802 6.93742 18.5989 6.73433C18.3958 6.53123 18.1204 6.417 17.8332 6.41667H11.4442L10.6111 4.41656C10.5291 4.21894 10.3903 4.0501 10.2123 3.93143C10.0343 3.81277 9.82506 3.74962 9.61111 3.75H1.83333C1.54611 3.75034 1.27076 3.86458 1.06767 4.06767C0.864579 4.27076 0.750335 4.54612 0.75 4.83333V21.9167H20.4706L23.1111 11.3548C23.1531 11.189 23.1565 11.0157 23.121 10.8484C23.0855 10.6811 23.0121 10.5241 22.9065 10.3896ZM2.25 20.4167V5.25H9.33333L10.4443 7.91667H17.4167V9.95691H6.44939C6.1984 9.95658 5.95453 10.0403 5.75668 10.1948C5.55883 10.3492 5.41841 10.5655 5.35781 10.809L2.95608 20.4167H2.25ZM19.2995 20.4167H4.50225L6.74217 11.4569H21.5394L19.2995 20.4167Z" fill="#161616"/>
</svg>
