<svg width="68" height="75" viewBox="0 0 68 75" fill="none" xmlns="http://www.w3.org/2000/svg">
<g id="Group 35627">
<path id="Vector" d="M61.1235 36.4102C61.1235 36.4102 52.8424 44.1005 34 44.1005C15.1576 44.1005 6.87646 36.4102 6.87646 36.4102" stroke="#279FB9" stroke-width="2" stroke-linecap="round" stroke-linejoin="round"/>
<path id="Vector_2" d="M5.17139 43.4023C16.909 50.7965 23.3264 50.1409 32.0107 60.3275C32.5262 60.9264 33.273 61.21 34.0331 61.2037C34.7931 61.21 35.5465 60.9264 36.0554 60.3275C44.7331 50.1409 51.1505 50.7965 62.8948 43.4023" stroke="#279FB9" stroke-width="2" stroke-linecap="round" stroke-linejoin="round"/>
<path id="Vector_3" d="M34 61.209V73.7784" stroke="#279FB9" stroke-width="2" stroke-linecap="round" stroke-linejoin="round"/>
<g id="Group">
<path id="Vector_4" d="M11.3902 25.8516C10.7425 27.5977 9.92957 29.4131 8.91839 31.2916C6.13598 36.492 4.49033 42.1968 4.4639 48.0402C4.43085 55.012 5.97076 64.2027 11.9916 73.7778" stroke="#279FB9" stroke-width="2" stroke-linecap="round" stroke-linejoin="round"/>
<path id="Vector_5" d="M10.4585 1.39453C10.4585 1.39453 15.7656 9.25512 12.6527 21.793" stroke="#279FB9" stroke-width="2" stroke-linecap="round" stroke-linejoin="round"/>
<path id="Vector_6" d="M21.5616 27.8625C9.86355 26.419 1.62207 22.9394 1.62207 18.8862C1.62207 16.3143 4.9332 13.9757 10.3394 12.2422" stroke="#279FB9" stroke-width="2" stroke-linecap="round" stroke-linejoin="round"/>
<path id="Vector_7" d="M23.4453 23.5332L27.1662 28.658L22.1499 32.4402" stroke="#279FB9" stroke-width="2" stroke-linecap="round" stroke-linejoin="round"/>
</g>
<g id="Group_2">
<path id="Vector_8" d="M56.6029 25.8516C57.2506 27.5977 58.0635 29.4131 59.0747 31.2916C61.8571 36.492 63.5027 42.1968 63.5292 48.0402C63.5622 55.012 62.0223 64.2027 56.0015 73.7778" stroke="#279FB9" stroke-width="2" stroke-linecap="round" stroke-linejoin="round"/>
<path id="Vector_9" d="M57.5412 1.39453C57.5412 1.39453 52.2341 9.25512 55.347 21.793" stroke="#279FB9" stroke-width="2" stroke-linecap="round" stroke-linejoin="round"/>
<path id="Vector_10" d="M46.4385 27.8625C58.1365 26.4127 66.378 22.9394 66.378 18.8862C66.378 16.3143 63.0668 13.9757 57.6606 12.2422" stroke="#279FB9" stroke-width="2" stroke-linecap="round" stroke-linejoin="round"/>
<path id="Vector_11" d="M44.5483 23.5332L40.834 28.658L45.8436 32.4402" stroke="#279FB9" stroke-width="2" stroke-linecap="round" stroke-linejoin="round"/>
</g>
</g>
</svg>
