<svg width="64" height="77" viewBox="0 0 64 77" fill="none" xmlns="http://www.w3.org/2000/svg">
<g id="Group 35628">
<path id="Vector" d="M24.5939 17.8207C28.0707 18.2881 31.7331 18.3457 34.8705 16.5081C36.4072 15.6053 37.6621 14.2543 38.264 12.5703C38.7954 11.0913 38.7634 9.65065 38.4176 8.30606C37.4316 4.43234 33.8204 1.80078 29.8251 1.80078H21.3989" stroke="#279FB9" stroke-width="2" stroke-linejoin="round"/>
<path id="Vector_2" d="M24.1655 62.5705C27.9368 73.2376 44.3985 76.3686 55.1744 68.3586C61.7758 63.4476 63.7222 54.823 62.7746 46.954C61.2123 33.9754 54.3165 21.6948 38.732 12.5195" stroke="#279FB9" stroke-width="2" stroke-linecap="round" stroke-linejoin="round"/>
<path id="Vector_3" d="M3.28564 66.6094C10.9562 69.1513 21.3224 70.752 28.2759 68.4534" stroke="#279FB9" stroke-width="2" stroke-linejoin="round"/>
<path id="Vector_4" d="M1 3.01758C8.60656 22.2005 8.67059 39.6546 4.98256 58.3701C4.06055 63.0377 1.94122 68.9475 4.01573 73.231C4.01573 73.231 24.1526 79.557 35.4088 72.0913" stroke="#279FB9" stroke-width="2" stroke-linecap="round" stroke-linejoin="round"/>
<path id="Vector_5" d="M59.0161 52.2806V50.4238" stroke="#279FB9" stroke-width="2" stroke-linecap="round" stroke-linejoin="round"/>
<path id="Vector_6" d="M32.8799 10.0728C32.8799 9.79105 32.6494 9.56055 32.3677 9.56055C32.086 9.56055 31.8555 9.79105 31.8555 10.0728C31.8555 10.3545 32.086 10.585 32.3677 10.585C32.6494 10.585 32.8799 10.3545 32.8799 10.0728Z" stroke="#279FB9" stroke-width="2" stroke-linejoin="round"/>
</g>
</svg>
