<svg width="72" height="66" viewBox="0 0 72 66" fill="none" xmlns="http://www.w3.org/2000/svg">
<g id="Group 35616">
<g id="Group 35615">
<path id="Vector" d="M28.0514 22.5077C22.1985 22.5077 17.4531 27.2531 17.4531 33.106C17.4531 38.9589 22.1985 43.7043 28.0514 43.7043" stroke="#279FB9" stroke-width="2" stroke-linecap="round" stroke-linejoin="round"/>
<path id="Vector_2" d="M70.4443 27.8068C70.4443 36.5874 65.6989 43.7042 59.846 43.7042H54.5469" stroke="#279FB9" stroke-width="2" stroke-linecap="round" stroke-linejoin="round"/>
<path id="Vector_3" d="M38.6494 1.3111C56.2081 1.3111 70.4443 13.1732 70.4443 27.8068" stroke="#279FB9" stroke-width="2" stroke-linecap="round" stroke-linejoin="round"/>
<path id="Vector_4" d="M1.55566 22.5077C1.55566 10.8019 18.1632 1.3111 38.6497 1.3111" stroke="#279FB9" stroke-width="2" stroke-linecap="round" stroke-linejoin="round"/>
<path id="Vector_5" d="M1.55566 22.5077C1.55566 28.3606 3.92703 33.106 6.85481 33.106" stroke="#279FB9" stroke-width="2" stroke-linecap="round" stroke-linejoin="round"/>
<path id="Vector_6" d="M28.0518 43.7043H38.65" stroke="#279FB9" stroke-width="2" stroke-linecap="round" stroke-linejoin="round"/>
<path id="Vector_7" d="M6.85449 33.1058H12.1536" stroke="#279FB9" stroke-width="2" stroke-linecap="round" stroke-linejoin="round"/>
<path id="Vector_8" d="M49.248 64.9009V58.2769C49.248 56.0831 51.0286 54.3026 53.2224 54.3026H54.3193C57.0881 54.3026 59.5575 52.2783 59.8225 49.5227C60.1245 46.3618 57.6472 43.7043 54.5472 43.7043" stroke="#279FB9" stroke-width="2" stroke-linecap="round" stroke-linejoin="round"/>
<path id="Vector_9" d="M38.6494 43.7043L41.299 54.3026L43.9486 64.9009" stroke="#279FB9" stroke-width="2" stroke-linecap="round" stroke-linejoin="round"/>
<path id="Vector_10" d="M28.0518 22.5077H33.3509" stroke="#279FB9" stroke-width="2" stroke-linecap="round" stroke-linejoin="round"/>
<path id="Vector_11" d="M36 30.4563C38.9278 30.4563 41.2991 32.8277 41.2991 35.7554" stroke="#279FB9" stroke-width="2" stroke-linecap="round" stroke-linejoin="round"/>
<path id="Vector_12" d="M38.6497 17.2085C38.6497 20.1363 36.2784 22.5076 33.3506 22.5076" stroke="#279FB9" stroke-width="2" stroke-linecap="round" stroke-linejoin="round"/>
<path id="Vector_13" d="M63.8206 30.4563C63.8206 33.3841 61.4493 35.7554 58.5215 35.7554" stroke="#279FB9" stroke-width="2" stroke-linecap="round" stroke-linejoin="round"/>
<path id="Vector_14" d="M58.5218 35.7554C55.594 35.7554 53.2227 33.3841 53.2227 30.4563" stroke="#279FB9" stroke-width="2" stroke-linecap="round" stroke-linejoin="round"/>
<path id="Vector_15" d="M25.4014 30.4563C28.3291 30.4563 30.7005 32.8277 30.7005 35.7554" stroke="#279FB9" stroke-width="2" stroke-linecap="round" stroke-linejoin="round"/>
<path id="Vector_16" d="M42.624 22.5077C45.5518 22.5077 47.9232 24.8791 47.9232 27.8068" stroke="#279FB9" stroke-width="2" stroke-linecap="round" stroke-linejoin="round"/>
<path id="Vector_17" d="M30.7012 35.7554C30.7012 32.8277 33.0725 30.4563 36.0003 30.4563" stroke="#279FB9" stroke-width="2" stroke-linecap="round" stroke-linejoin="round"/>
<path id="Vector_18" d="M53.1722 30.4563C53.1722 33.3841 50.8008 35.7554 47.873 35.7554" stroke="#279FB9" stroke-width="2" stroke-linecap="round" stroke-linejoin="round"/>
<path id="Vector_19" d="M63.8203 30.4564C63.8203 27.5286 66.1917 25.1572 69.1195 25.1572" stroke="#279FB9" stroke-width="2" stroke-linecap="round" stroke-linejoin="round"/>
<path id="Vector_20" d="M25.4016 14.5589C23.4409 14.5589 21.7293 13.4938 20.8125 11.912" stroke="#279FB9" stroke-width="2" stroke-linecap="round" stroke-linejoin="round"/>
<path id="Vector_21" d="M20.1029 11.9094C20.1029 14.8372 17.7315 17.2086 14.8037 17.2086" stroke="#279FB9" stroke-width="2" stroke-linecap="round" stroke-linejoin="round"/>
<path id="Vector_22" d="M28.0518 6.61017C30.9795 6.61017 33.3509 8.98153 33.3509 11.9093" stroke="#279FB9" stroke-width="2" stroke-linecap="round" stroke-linejoin="round"/>
<path id="Vector_23" d="M14.8037 6.61017C17.7315 6.61017 20.1029 8.98153 20.1029 11.9093" stroke="#279FB9" stroke-width="2" stroke-linecap="round" stroke-linejoin="round"/>
<path id="Vector_24" d="M33.3506 11.9093C33.3506 8.98153 35.722 6.61017 38.6497 6.61017" stroke="#279FB9" stroke-width="2" stroke-linecap="round" stroke-linejoin="round"/>
<path id="Vector_25" d="M38.6494 6.61017C41.5772 6.61017 43.9486 8.98153 43.9486 11.9093" stroke="#279FB9" stroke-width="2" stroke-linecap="round" stroke-linejoin="round"/>
<path id="Vector_26" d="M49.2474 17.2086C46.3196 17.2086 43.9482 14.8372 43.9482 11.9094" stroke="#279FB9" stroke-width="2" stroke-linecap="round" stroke-linejoin="round"/>
<path id="Vector_27" d="M59.846 17.2085C59.846 20.1363 57.4747 22.5076 54.5469 22.5076" stroke="#279FB9" stroke-width="2" stroke-linecap="round" stroke-linejoin="round"/>
<path id="Vector_28" d="M59.6791 7.93243C59.0909 10.219 57.0163 11.9094 54.5469 11.9094" stroke="#279FB9" stroke-width="2" stroke-linecap="round" stroke-linejoin="round"/>
<path id="Vector_29" d="M49.248 17.2086C49.248 14.2808 51.6194 11.9094 54.5472 11.9094" stroke="#279FB9" stroke-width="2" stroke-linecap="round" stroke-linejoin="round"/>
<path id="Vector_30" d="M9.50488 22.5076C9.50488 19.5799 11.8762 17.2085 14.804 17.2085" stroke="#279FB9" stroke-width="2" stroke-linecap="round" stroke-linejoin="round"/>
<path id="Vector_31" d="M9.50488 22.5077V25.1573" stroke="#279FB9" stroke-width="2" stroke-linecap="round" stroke-linejoin="round"/>
<path id="Vector_32" d="M54.5471 22.5077H42.624" stroke="#279FB9" stroke-width="2" stroke-linecap="round" stroke-linejoin="round"/>
<path id="Vector_33" d="M25.4014 14.559H28.0509" stroke="#279FB9" stroke-width="2" stroke-linecap="round" stroke-linejoin="round"/>
<path id="Vector_34" d="M54.5468 43.7043H49.2477H38.6494" stroke="#279FB9" stroke-width="2" stroke-linecap="round" stroke-linejoin="round"/>
</g>
<path id="Vector_35" d="M12.5096 39.7013C12.5574 39.62 12.6888 39.6606 12.6769 39.7535L11.7628 48.6064C11.7628 48.6586 11.7987 48.705 11.8524 48.705H16.3987C16.4704 48.705 16.5122 48.7805 16.4764 48.8386L8.11864 62.3761C8.07085 62.4574 7.93942 62.4168 7.95137 62.3239L8.8654 53.4711C8.8654 53.4188 8.82956 53.3724 8.77579 53.3724H4.22354C4.15185 53.3724 4.11004 53.2969 4.14588 53.2389L12.5096 39.7013Z" stroke="#279FB9" stroke-width="2" stroke-linecap="round" stroke-linejoin="round"/>
</g>
</svg>
