<svg width="85" height="58" viewBox="0 0 85 58" fill="none" xmlns="http://www.w3.org/2000/svg">
<path d="M31.0984 27.4007L31.0986 27.4001L42.3334 3.36178L53.5682 27.4001L53.5685 27.4007C54.5457 29.488 55.1112 31.8862 55.1112 34.4306C55.1112 38.5289 53.6616 41.7671 51.3776 43.9816C49.0874 46.2021 45.9005 47.4494 42.3334 47.4494C38.7664 47.4494 35.5795 46.2021 33.2893 43.9816C31.0053 41.7671 29.5557 38.5289 29.5557 34.4306C29.5557 31.8862 30.1212 29.488 31.0984 27.4007Z" stroke="#279FB9" stroke-width="2"/>
<path d="M56.1112 34.4306C56.1112 43.1228 49.937 48.4494 42.3334 48.4494C34.7299 48.4494 28.5557 43.1228 28.5557 34.4306C28.5557 31.7382 29.154 29.1954 30.1927 26.9767L42.3334 1L54.4742 26.9767C55.5129 29.1954 56.1112 31.7382 56.1112 34.4306Z" stroke="#279FB9" stroke-linecap="round" stroke-linejoin="round"/>
<path d="M39.2252 41.7922C36.7156 40.8532 34.6797 38.6012 34.6797 34.4297C34.6797 33.0502 34.9207 31.6791 35.386 30.416" stroke="#279FB9" stroke-width="2" stroke-linecap="round" stroke-linejoin="round"/>
<path d="M38.9678 22.6637L40.8874 18.5586" stroke="#279FB9" stroke-width="2" stroke-linecap="round" stroke-linejoin="round"/>
<path d="M83.6667 10.1816H62.169C60.6234 10.1816 59.1858 10.9711 58.3548 12.2757C57.5238 13.5804 57.4241 15.2174 58.0722 16.6135L61.4045 23.735C62.9501 27.0424 63.7645 30.732 63.7645 34.4382C63.7645 46.795 54.5489 56.1103 42.3333 56.1103C30.1178 56.1103 20.9022 46.7867 20.9022 34.4382C20.9022 30.732 21.7165 27.0424 23.2622 23.735L26.5861 16.6135C27.2426 15.2174 27.1346 13.5804 26.3036 12.2757C25.4726 10.9711 24.035 10.1816 22.4893 10.1816H1" stroke="#279FB9" stroke-width="2" stroke-linecap="round" stroke-linejoin="round"/>
</svg>
