<svg width="74" height="72" viewBox="0 0 74 72" fill="none" xmlns="http://www.w3.org/2000/svg">
<g id="Group 35631">
<g id="Group 35630">
<path id="Vector" d="M24.539 70.0696C22.8289 70.0696 21.4272 68.6679 21.4272 66.9579V38.9242C21.4272 37.2142 22.8289 35.8125 24.539 35.8125C26.249 35.8125 27.6507 37.2142 27.6507 38.9242V66.9579C27.6507 68.6679 26.249 70.0696 24.539 70.0696Z" stroke="#279FB9" stroke-width="2" stroke-linecap="round" stroke-linejoin="round"/>
<path id="Vector_2" d="M30.7719 70.0696C29.0618 70.0696 27.6602 68.6679 27.6602 66.9579V38.9242C27.6602 37.2142 29.0618 35.8125 30.7719 35.8125C32.4819 35.8125 33.8836 37.2142 33.8836 38.9242V66.9579C33.8836 68.6679 32.4819 70.0696 30.7719 70.0696Z" stroke="#279FB9" stroke-width="2" stroke-linecap="round" stroke-linejoin="round"/>
<g id="Vector_3">
<mask id="path-3-inside-1_777_3243" fill="white">
<path d="M21.4276 56.0531H15.1948V49.8203H21.4276"/>
</mask>
<path d="M15.1948 56.0531H14.1948V57.0531H15.1948V56.0531ZM15.1948 49.8203V48.8203H14.1948V49.8203H15.1948ZM21.4276 55.0531H15.1948V57.0531H21.4276V55.0531ZM16.1948 56.0531V49.8203H14.1948V56.0531H16.1948ZM15.1948 50.8203H21.4276V48.8203H15.1948V50.8203Z" fill="#279FB9" mask="url(#path-3-inside-1_777_3243)"/>
</g>
<path id="Vector_4" d="M21.4276 56.0531H15.1948V49.8203H21.4276" stroke="#279FB9" stroke-width="2" stroke-linecap="round" stroke-linejoin="round"/>
<path id="Vector_5" d="M54.1334 49.8301H33.8838V56.0629H54.1334V49.8301Z" stroke="#279FB9" stroke-width="2" stroke-linecap="round" stroke-linejoin="round"/>
<path id="Vector_6" d="M63.4779 70.0696C65.188 70.0696 66.5897 68.6679 66.5897 66.9579V38.9242C66.5897 37.2142 65.188 35.8125 63.4779 35.8125C61.7679 35.8125 60.3662 37.2142 60.3662 38.9242V66.9579C60.3662 68.6679 61.7679 70.0696 63.4779 70.0696Z" stroke="#279FB9" stroke-width="2" stroke-linecap="round" stroke-linejoin="round"/>
<path id="Vector_7" d="M57.2455 70.0696C58.9556 70.0696 60.3573 68.6679 60.3573 66.9579V38.9242C60.3573 37.2142 58.9556 35.8125 57.2455 35.8125C55.5355 35.8125 54.1338 37.2142 54.1338 38.9242V66.9579C54.1338 68.6679 55.5355 70.0696 57.2455 70.0696Z" stroke="#279FB9" stroke-width="2" stroke-linecap="round" stroke-linejoin="round"/>
<g id="Vector_8">
<mask id="path-9-inside-2_777_3243" fill="white">
<path d="M66.5894 56.0531H72.8222V49.8203H66.5894"/>
</mask>
<path d="M72.8222 56.0531V57.0531H73.8222V56.0531H72.8222ZM72.8222 49.8203H73.8222V48.8203H72.8222V49.8203ZM66.5894 57.0531H72.8222V55.0531H66.5894V57.0531ZM73.8222 56.0531V49.8203H71.8222V56.0531H73.8222ZM72.8222 48.8203H66.5894V50.8203H72.8222V48.8203Z" fill="#279FB9" mask="url(#path-9-inside-2_777_3243)"/>
</g>
<path id="Vector_9" d="M66.5894 56.0531H72.8222V49.8203H66.5894" stroke="#279FB9" stroke-width="2" stroke-linecap="round" stroke-linejoin="round"/>
</g>
<g id="Group 35629">
<path id="Vector_10" d="M50.6291 32.1674C48.4798 28.4483 45.4615 25.2711 41.8452 22.935L44.5364 13.796C45.312 10.8525 44.7046 7.76881 42.8544 5.35792C41.0042 2.94702 38.1821 1.55469 35.1265 1.55469H20.1752C17.1195 1.55469 14.3162 2.93768 12.4473 5.35792C10.597 7.76881 9.97095 10.8525 10.7839 13.8801L13.4284 22.8696C6.06493 27.5512 1.17773 35.7931 1.17773 45.1844C1.17773 53.2394 4.77538 60.444 10.4475 65.2938M19.2314 17.0293C18.5119 17.0293 17.8951 16.5433 17.7176 15.8612L16.7831 12.1888C16.5028 11.1328 16.7177 10.0208 17.3905 9.1518C18.0633 8.28276 19.0725 7.77816 20.1659 7.77816H35.1171C36.2104 7.77816 37.2196 8.27342 37.8925 9.1518C38.5653 10.0208 38.7802 11.1328 38.5185 12.114L37.3692 15.9453C37.1636 16.5994 36.5562 17.0479 35.874 17.0479H19.2127L19.2407 17.0293H19.2314Z" stroke="#279FB9" stroke-width="2" stroke-linecap="round" stroke-linejoin="round"/>
<path id="Vector_11" d="M15.7552 21.5898C7.11152 25.9537 1.17773 34.9058 1.17773 45.2502C1.17773 56.6506 8.40107 66.3409 18.5119 70.0787H36.7991C43.2936 67.6771 48.6013 62.818 51.5635 56.6225" stroke="#279FB9" stroke-width="2" stroke-linecap="round" stroke-linejoin="round"/>
<path id="Vector_12" d="M54.133 45.2501C54.133 34.9711 48.274 26.0658 39.7144 21.6738" stroke="#279FB9" stroke-width="2" stroke-linecap="round" stroke-linejoin="round"/>
</g>
</g>
</svg>
