<svg width="24" height="24" viewBox="0 0 24 24" fill="none" xmlns="http://www.w3.org/2000/svg">
<path d="M15.9998 9C17.1043 9 17.9998 8.10457 17.9998 7C17.9998 5.89543 17.1043 5 15.9998 5C14.8952 5 13.9998 5.89543 13.9998 7C13.9998 8.10457 14.8952 9 15.9998 9Z" stroke="black" stroke-width="1.4" stroke-linecap="round" stroke-linejoin="round"/>
<path d="M8 13.6665C9.10457 13.6665 10 12.7711 10 11.6665C10 10.5619 9.10457 9.6665 8 9.6665C6.89543 9.6665 6 10.5619 6 11.6665C6 12.7711 6.89543 13.6665 8 13.6665Z" stroke="black" stroke-width="1.4" stroke-linecap="round" stroke-linejoin="round"/>
<path d="M15.9998 18.3335C17.1043 18.3335 17.9998 17.4381 17.9998 16.3335C17.9998 15.2289 17.1043 14.3335 15.9998 14.3335C14.8952 14.3335 13.9998 15.2289 13.9998 16.3335C13.9998 17.4381 14.8952 18.3335 15.9998 18.3335Z" stroke="black" stroke-width="1.4" stroke-linecap="round" stroke-linejoin="round"/>
<path d="M9.72656 12.6733L14.2799 15.3267" stroke="black" stroke-width="1.4" stroke-linecap="round" stroke-linejoin="round"/>
<path d="M14.2732 8.00635L9.72656 10.6597" stroke="black" stroke-width="1.4" stroke-linecap="round" stroke-linejoin="round"/>
</svg>
