<svg width="78" height="76" viewBox="0 0 78 76" fill="none" xmlns="http://www.w3.org/2000/svg">
<g id="Group 35624">
<g id="Group 35617">
<path id="Vector" d="M76.7778 32.6636H57.0716C55.6548 32.6636 54.337 33.3872 53.5752 34.5832C52.8135 35.7791 52.7221 37.2797 53.3162 38.5594L56.3708 45.0875C57.7876 48.1192 58.5341 51.5014 58.5341 54.8987C58.5341 66.2258 50.0865 74.7649 38.8889 74.7649C27.6913 74.7649 19.2436 66.2182 19.2436 54.8987C19.2436 51.5014 19.9901 48.1192 21.407 45.0875L24.4539 38.5594C25.0557 37.2797 24.9567 35.7791 24.1949 34.5832C23.4332 33.3872 22.1154 32.6636 20.6986 32.6636H1" stroke="#279FB9" stroke-width="2" stroke-linecap="round" stroke-linejoin="round"/>
</g>
<g id="Group 35619">
<path id="Vector_2" d="M31.0815 38.5871L31.0818 38.5865L38.9094 21.9946L46.737 38.5865L46.7373 38.5871C47.422 40.0359 47.8188 41.702 47.8188 43.4709C47.8188 46.3167 46.8047 48.5463 45.2221 50.0665C43.6328 51.5931 41.4118 52.4595 38.9094 52.4595C36.407 52.4595 34.186 51.5931 32.5967 50.0665C31.0141 48.5463 30 46.3167 30 43.4709C30 41.702 30.3968 40.0359 31.0815 38.5871Z" stroke="#279FB9" stroke-width="2"/>
<path id="Vector 3" d="M39.0003 21.7452C40.4717 18.2741 45.1831 9.20981 52.2568 0.721741" stroke="#279FB9" stroke-width="2"/>
</g>
<g id="Group 35623">
<g id="Group 35621">
<line id="Line 198" x1="33.6473" y1="65.1963" x2="33.6473" y2="57.452" stroke="#279FB9" stroke-width="1.6"/>
<g id="Group 35620">
<line id="Line 199" x1="30.4343" y1="59.7613" x2="34.1432" y2="56.0525" stroke="#279FB9" stroke-width="1.6"/>
<line id="Line 200" x1="36.7859" y1="59.8327" x2="33.5188" y2="56.5656" stroke="#279FB9" stroke-width="1.6"/>
</g>
</g>
<g id="Group 35622">
<line id="Line 198_2" x1="44.2957" y1="65.1963" x2="44.2957" y2="57.452" stroke="#279FB9" stroke-width="1.6"/>
<g id="Group 35620_2">
<line id="Line 199_2" x1="41.2087" y1="59.8166" x2="44.8792" y2="56.1462" stroke="#279FB9" stroke-width="1.6"/>
<line id="Line 200_2" x1="47.4343" y1="59.8327" x2="44.1672" y2="56.5656" stroke="#279FB9" stroke-width="1.6"/>
</g>
</g>
</g>
</g>
</svg>
