<svg width="72" height="70" viewBox="0 0 72 70" fill="none" xmlns="http://www.w3.org/2000/svg">
<g id="Group">
<path id="Vector" d="M45.8407 69.4408V49.6859L60.6037 49.7556C66.0394 49.7556 70.4444 45.3506 70.4444 39.9149C70.4444 34.4792 66.0394 30.0741 60.6037 30.0741C66.0394 30.0741 70.4444 25.6691 70.4444 20.2334C70.4444 14.7977 66.0394 10.3926 60.6037 10.3926H36V0.555542" stroke="#279FB9" stroke-width="2" stroke-linejoin="round"/>
<path id="Vector_2" d="M61.1136 20.2369H11.3964C5.96071 20.2369 1.55566 24.642 1.55566 30.0777C1.55566 35.5134 5.96071 39.9184 11.3964 39.9184C5.96071 39.9184 1.55566 44.3235 1.55566 49.7592C1.55566 55.1949 5.96071 59.5999 11.3964 59.5999H36.0001V69.4407" stroke="#279FB9" stroke-width="2" stroke-linejoin="round"/>
<path id="Vector_3" d="M11.3965 39.9186H60.6002" stroke="#279FB9" stroke-width="2" stroke-linejoin="round"/>
<path id="Vector_4" d="M60.6002 30.0776H11.3965" stroke="#279FB9" stroke-width="2" stroke-linejoin="round"/>
<path id="Vector_5" d="M45.8409 49.6896H11.3965" stroke="#279FB9" stroke-width="2" stroke-linejoin="round"/>
<path id="Vector_6" d="M26.1553 0.555542V20.237" stroke="#279FB9" stroke-width="2" stroke-linejoin="round"/>
</g>
</svg>
