<svg width="80" height="66" viewBox="0 0 80 66" fill="none" xmlns="http://www.w3.org/2000/svg">
<g id="Group 35612">
<path id="Vector" d="M42.3873 64.4377C42.5866 64.2577 73.4964 35.9303 77.2553 26.562C81.0256 17.1629 76.4621 6.488 67.0631 2.71766C57.6641 -1.05267 46.9891 3.51081 43.2226 12.9098C43.0579 13.3198 42.9123 13.8141 42.7705 14.339C42.6517 13.8869 42.5291 13.4616 42.3912 13.0976C38.7703 3.64109 28.1719 -1.09099 18.7155 2.52608C9.25513 6.13932 4.51923 16.7415 8.13629 26.198C11.7534 35.6544 42.3873 64.4377 42.3873 64.4377Z" stroke="#279FB9" stroke-width="2" stroke-linecap="round" stroke-linejoin="round"/>
<path id="Vector_2" d="M15.4854 36.7196C25.6814 48.7395 42.3873 64.4377 42.3873 64.4377C42.5866 64.2577 73.4964 35.9303 77.2553 26.562C81.0256 17.1629 76.4621 6.488 67.0631 2.71766C57.6641 -1.05267 46.9891 3.51081 43.2226 12.9098C43.0579 13.3198 42.9123 13.8141 42.7705 14.339C42.6517 13.8869 42.5291 13.4616 42.3912 13.0976C38.7703 3.64109 28.1719 -1.09099 18.7155 2.52608C9.25513 6.13932 4.51923 16.7415 8.13629 26.198C8.17461 26.2976 8.21676 26.401 8.26274 26.5083" stroke="#279FB9" stroke-width="2" stroke-linejoin="round"/>
<path id="Vector_3" d="M4.87659 40.2527L25.7692 34.0888L28.1136 18.108L49.4532 42.4243L51.8132 26.415L63.5439 22.9675" stroke="#279FB9" stroke-width="2" stroke-linejoin="round"/>
<path id="Line 196" d="M63.4121 22.6475L55.5878 18.3012" stroke="#279FB9" stroke-width="2" stroke-linecap="round"/>
<path id="Line 197" d="M63.5088 22.7772L59.4794 31.2104" stroke="#279FB9" stroke-width="2" stroke-linecap="round"/>
</g>
</svg>
