<svg width="120" height="24" viewBox="0 0 120 24" fill="none" xmlns="http://www.w3.org/2000/svg">
<g id="Group 2608730">
<path id="Vector" fill-rule="evenodd" clip-rule="evenodd" d="M4.63006 11.7432V20.769C1.81332 18.6642 0 15.4105 0 11.7534V11.7466C0 5.39839 5.4543 0.25 12.1844 0.25H12.1951C16.7033 0.25 20.6346 2.5683 22.7382 6.00169L18.7281 8.18441C17.4201 6.05253 14.9832 4.61884 12.1844 4.61884C8.01302 4.61884 4.63365 7.8082 4.62648 11.7432H4.63006ZM12.188 14.5089C13.8042 14.5089 15.1122 13.2718 15.1122 11.75C15.1122 10.2282 13.8042 8.99108 12.188 8.99108C10.5717 8.99108 9.26371 10.2282 9.26371 11.75C9.26371 13.2752 10.5753 14.5123 12.188 14.5123V14.5089ZM16.7177 11.7432L18.8069 15.1935C17.5204 17.3932 15.0405 18.8811 12.188 18.8811C11.1523 18.8811 10.1632 18.6846 9.26371 18.3253V22.9144C10.199 23.1313 11.1774 23.25 12.1844 23.25H12.1915C18.9216 23.25 24.3759 18.1016 24.3759 11.75V11.7432H16.7177Z" fill="#00B1AD"/>
<g id="Group 2608729">
<path id="Vector_2" d="M36.0539 7.87943C37.5089 7.87943 38.7309 8.3675 39.7952 9.43513L41.3864 7.87943C40.107 6.41863 38.2077 5.65942 35.9392 5.65942C31.6926 5.65942 28.5928 8.59797 28.5928 12.6652C28.5928 16.7324 31.6962 19.6709 35.8998 19.6709C37.8207 19.6709 39.7952 19.0879 41.2108 17.939V12.5093H36.4409V14.6378H38.8241V16.7527C37.9532 17.2577 37.0036 17.4543 36.0324 17.4543C33.1619 17.4543 31.1264 15.4309 31.1264 12.6686C31.1264 9.90625 33.1619 7.88282 36.0503 7.88282L36.0539 7.87943Z" fill="#303030"/>
<path id="Vector_3" d="M48.2088 8.96726C45.1269 8.96726 42.8584 11.1873 42.8584 14.2783C42.8584 17.3694 45.1089 19.6097 48.5779 19.6097C50.3625 19.6097 51.8139 19.0268 52.7457 17.9151L51.4484 16.417C50.7102 17.1762 49.7999 17.5456 48.6388 17.5456C46.8362 17.5456 45.5748 16.5729 45.2845 15.0545H53.4086C53.4266 14.8206 53.4481 14.5291 53.4481 14.336C53.4481 11.0856 51.2369 8.96387 48.2124 8.96387L48.2088 8.96726ZM45.263 13.4446C45.496 11.9261 46.6391 10.9161 48.2088 10.9161C49.7784 10.9161 50.9431 11.9465 51.1366 13.4446H45.263Z" fill="#303030"/>
<path id="Vector_4" d="M61.0601 8.96729C59.5478 8.96729 58.2864 9.47229 57.4944 10.4281V9.08591H55.1865V19.4776H57.6091V14.2241C57.6091 12.1431 58.7737 11.0924 60.4975 11.0924C62.0492 11.0924 62.9594 11.9872 62.9594 13.8377V19.481H65.382V13.5259C65.382 10.3942 63.54 8.97067 61.0601 8.97067V8.96729Z" fill="#303030"/>
<path id="Vector_5" d="M72.6314 8.96729C69.4527 8.96729 67.127 11.167 67.127 14.2784C67.127 17.3898 69.4527 19.6098 72.6314 19.6098C75.8101 19.6098 78.1574 17.3898 78.1574 14.2784C78.1574 11.167 75.8495 8.96729 72.6314 8.96729ZM72.6314 17.5287C70.8862 17.5287 69.5674 16.2645 69.5674 14.2784C69.5674 12.2922 70.8862 11.028 72.6314 11.028C74.3767 11.028 75.7134 12.2922 75.7134 14.2784C75.7134 16.2645 74.3946 17.5287 72.6314 17.5287Z" fill="#303030"/>
<path id="Vector_6" d="M85.6398 8.96729C84.2242 8.96729 83.0237 9.45535 82.2102 10.445V9.08252H79.9023V23.2499H82.3249V18.21C83.1599 19.1624 84.321 19.6098 85.6398 19.6098C88.6643 19.6098 90.8934 17.5084 90.8934 14.2784C90.8934 11.0483 88.6643 8.96729 85.6398 8.96729ZM85.3674 17.5287C83.6222 17.5287 82.2855 16.2645 82.2855 14.2784C82.2855 12.2922 83.6222 11.028 85.3674 11.028C87.1126 11.028 88.4314 12.2922 88.4314 14.2784C88.4314 16.2645 87.1126 17.5287 85.3674 17.5287Z" fill="#303030"/>
<path id="Vector_7" d="M105.523 10.4487C104.71 9.45562 103.505 8.97095 102.093 8.97095C99.0689 8.97095 96.8398 11.0723 96.8398 14.282C96.8398 17.4917 99.0689 19.6134 102.093 19.6134C103.412 19.6134 104.573 19.166 105.408 18.2136V19.4779H107.831V9.08618H105.523V10.4487ZM102.362 17.5324C100.617 17.5324 99.2982 16.2682 99.2982 14.282C99.2982 12.2959 100.617 11.0317 102.362 11.0317C104.107 11.0317 105.444 12.2959 105.444 14.282C105.444 16.2682 104.107 17.5324 102.362 17.5324Z" fill="#303030"/>
<path id="Vector_8" d="M95.0397 5.03564H92.6172V19.4742H95.0397V5.03564Z" fill="#303030"/>
<path id="Vector_9" d="M115.679 8.96729C114.167 8.96729 112.906 9.47229 112.114 10.4281V9.08591H109.806V19.4776H112.228V14.2241C112.228 12.1431 113.393 11.0924 115.117 11.0924C116.668 11.0924 117.579 11.9872 117.579 13.8377V19.481H120.001V13.5259C120.001 10.3942 118.159 8.97067 115.679 8.97067V8.96729Z" fill="#303030"/>
</g>
</g>
</svg>
