<svg width="85" height="58" viewBox="0 0 85 58" fill="none" xmlns="http://www.w3.org/2000/svg">
<g id="Group 35617">
<path id="Vector" d="M31.0984 27.4008L31.0986 27.4002L42.3334 3.36191L53.5682 27.4002L53.5685 27.4008C54.5457 29.4881 55.1112 31.8863 55.1112 34.4308C55.1112 38.529 53.6616 41.7672 51.3776 43.9818C49.0874 46.2023 45.9005 47.4495 42.3334 47.4495C38.7664 47.4495 35.5795 46.2023 33.2893 43.9818C31.0053 41.7672 29.5557 38.529 29.5557 34.4308C29.5557 31.8863 30.1212 29.4881 31.0984 27.4008Z" stroke="#279FB9" stroke-width="2"/>
<path id="Vector_2" d="M56.1112 34.4308C56.1112 43.1229 49.937 48.4495 42.3334 48.4495C34.7299 48.4495 28.5557 43.1229 28.5557 34.4308C28.5557 31.7384 29.154 29.1955 30.1927 26.9768L42.3334 1.00012L54.4742 26.9768C55.5129 29.1955 56.1112 31.7384 56.1112 34.4308Z" stroke="#279FB9" stroke-linecap="round" stroke-linejoin="round"/>
<path id="Vector_3" d="M39.2252 41.7933C36.7156 40.8543 34.6797 38.6023 34.6797 34.4307C34.6797 33.0513 34.9207 31.6802 35.386 30.4171" stroke="#279FB9" stroke-width="2" stroke-linecap="round" stroke-linejoin="round"/>
<path id="Vector_4" d="M38.9678 22.664L40.8874 18.5589" stroke="#279FB9" stroke-width="2" stroke-linecap="round" stroke-linejoin="round"/>
<path id="Vector_5" d="M83.6667 10.1824H62.169C60.6234 10.1824 59.1858 10.9719 58.3548 12.2765C57.5238 13.5812 57.4241 15.2182 58.0722 16.6143L61.4045 23.7358C62.9501 27.0432 63.7645 30.7328 63.7645 34.439C63.7645 46.7958 54.5489 56.1111 42.3333 56.1111C30.1178 56.1111 20.9022 46.7874 20.9022 34.439C20.9022 30.7328 21.7165 27.0432 23.2622 23.7358L26.5861 16.6143C27.2426 15.2182 27.1346 13.5812 26.3036 12.2765C25.4726 10.9719 24.035 10.1824 22.4893 10.1824H1" stroke="#279FB9" stroke-width="2" stroke-linecap="round" stroke-linejoin="round"/>
</g>
</svg>
