<svg width="72" height="71" viewBox="0 0 72 71" fill="none" xmlns="http://www.w3.org/2000/svg">
<g id="Group 35605">
<g id="Group">
<path id="Vector" d="M42.8936 41.7575V59.8756C42.8936 61.8011 44.0855 63.4992 45.8276 64.0457L62.1339 69.1657C65.8602 70.3356 69.7222 67.6546 70.1183 63.5469C70.3347 61.306 70.4447 59.0247 70.4447 56.7068C70.4447 38.7574 63.8137 22.7593 53.4673 12.3836C49.4769 8.38222 42.8936 11.496 42.8936 17.3239V26.5223" stroke="#279FB9" stroke-width="2" stroke-linejoin="round"/>
<path id="Vector_2" d="M29.1068 41.6585V59.8756C29.1068 61.8011 27.9148 63.4992 26.1727 64.0456L9.86649 69.1656C6.14019 70.3356 2.27818 67.6546 1.88208 63.5468C1.66569 61.3059 1.55566 59.0247 1.55566 56.7067C1.55566 38.7574 8.18672 22.7593 18.5331 12.3836C22.5234 8.38219 29.1068 11.496 29.1068 17.3238V26.4672" stroke="#279FB9" stroke-width="2" stroke-linejoin="round"/>
</g>
<g id="Group_2">
<path id="Vector_3" d="M35.958 0.555542V26.5663L60.1196 54.4038" stroke="#279FB9" stroke-width="2" stroke-linejoin="round"/>
<path id="Vector_4" d="M35.9574 26.5664L13.7676 51.9091M14.0807 40.6364H23.1615" stroke="#279FB9" stroke-width="2" stroke-linejoin="round"/>
</g>
<g id="Group 35614">
<path id="Vector_5" d="M54.4414 47.1619C54.4414 46.6096 53.9937 46.1619 53.4414 46.1619C52.8891 46.1619 52.4414 46.6096 52.4414 47.1619H54.4414ZM52.4414 54.5831V55.5831H54.4414V54.5831H52.4414ZM52.4414 47.1619V54.5831H54.4414V47.1619H52.4414Z" fill="#279FB9"/>
<path id="Vector_6" d="M56.2539 49.692H62.5103" stroke="#279FB9" stroke-width="2" stroke-linecap="square" stroke-linejoin="round"/>
<path id="Vector_7" d="M52.7461 39.2711L60.7371 37.505" stroke="#279FB9" stroke-width="2" stroke-linecap="square" stroke-linejoin="round"/>
<path id="Vector_8" d="M48.7129 40.1291L52.746 39.2711" stroke="#279FB9" stroke-width="2" stroke-linecap="round" stroke-linejoin="round"/>
<path id="Vector_9" d="M53.1554 38.3587C52.6515 38.1327 52.0597 38.3579 51.8337 38.8618C51.6076 39.3657 51.8329 39.9575 52.3368 40.1835L53.1554 38.3587ZM59.4011 43.3524L60.3135 43.7617L61.132 41.9369L60.2196 41.5276L59.4011 43.3524ZM52.3368 40.1835L59.4011 43.3524L60.2196 41.5276L53.1554 38.3587L52.3368 40.1835Z" fill="#279FB9"/>
<path id="Vector_10" d="M50.5507 30.5911C50.5507 30.7167 50.4488 30.8185 50.3232 30.8185C50.1975 30.8185 50.0957 30.7167 50.0957 30.5911C50.0957 30.4654 50.1975 30.3636 50.3232 30.3636C50.4488 30.3636 50.5507 30.4654 50.5507 30.5911Z" fill="#279FB9" stroke="#279FB9" stroke-width="2"/>
<path id="Vector_11" d="M56.0614 34.2673C56.0614 34.3929 55.9596 34.4948 55.8339 34.4948C55.7083 34.4948 55.6064 34.3929 55.6064 34.2673C55.6064 34.1417 55.7083 34.0398 55.8339 34.0398C55.9596 34.0398 56.0614 34.1417 56.0614 34.2673Z" fill="#279FB9" stroke="#279FB9" stroke-width="2"/>
<path id="Vector_12" d="M57.495 28.086C57.495 28.2116 57.3931 28.3135 57.2675 28.3135C57.1419 28.3135 57.04 28.2116 57.04 28.086C57.04 27.9604 57.1419 27.8585 57.2675 27.8585C57.3931 27.8585 57.495 27.9604 57.495 28.086Z" fill="#279FB9" stroke="#279FB9" stroke-width="2"/>
<path id="Vector_13" d="M50.5507 35.4947C50.5507 35.6204 50.4488 35.7222 50.3232 35.7222C50.1975 35.7222 50.0957 35.6204 50.0957 35.4947C50.0957 35.3691 50.1975 35.2673 50.3232 35.2673C50.4488 35.2673 50.5507 35.3691 50.5507 35.4947Z" fill="#279FB9" stroke="#279FB9" stroke-width="2"/>
<path id="Vector_14" d="M57.2889 45.9032C57.2889 46.0288 57.1871 46.1306 57.0615 46.1306C56.9358 46.1306 56.834 46.0288 56.834 45.9032C56.834 45.7775 56.9358 45.6757 57.0615 45.6757C57.1871 45.6757 57.2889 45.7775 57.2889 45.9032Z" fill="#279FB9" stroke="#279FB9" stroke-width="2"/>
<path id="Vector_15" d="M63.4266 46.5169C63.4266 46.6425 63.3248 46.7443 63.1992 46.7443C63.0735 46.7443 62.9717 46.6425 62.9717 46.5169C62.9717 46.3912 63.0735 46.2894 63.1992 46.2894C63.3248 46.2894 63.4266 46.3912 63.4266 46.5169Z" fill="#279FB9" stroke="#279FB9" stroke-width="2"/>
<path id="Vector_16" d="M64.6346 55.698C64.6346 55.8236 64.5328 55.9255 64.4072 55.9255C64.2815 55.9255 64.1797 55.8236 64.1797 55.698C64.1797 55.5724 64.2815 55.4705 64.4072 55.4705C64.5328 55.4705 64.6346 55.5724 64.6346 55.698Z" fill="#279FB9" stroke="#279FB9" stroke-width="2"/>
<path id="Vector_17" d="M62.1864 61.2403C62.1864 61.366 62.0846 61.4678 61.9589 61.4678C61.8333 61.4678 61.7314 61.366 61.7314 61.2403C61.7314 61.1147 61.8333 61.0128 61.9589 61.0128C62.0846 61.0128 62.1864 61.1147 62.1864 61.2403Z" fill="#279FB9" stroke="#279FB9" stroke-width="2"/>
<path id="Vector_18" d="M56.0487 58.1654C56.0487 58.2911 55.9469 58.3929 55.8212 58.3929C55.6956 58.3929 55.5938 58.2911 55.5938 58.1654C55.5938 58.0398 55.6956 57.938 55.8212 57.938C55.9469 57.938 56.0487 58.0398 56.0487 58.1654Z" fill="#279FB9" stroke="#279FB9" stroke-width="2"/>
<path id="Vector_19" d="M48.7147 55.1031C48.7147 55.2287 48.6129 55.3305 48.4872 55.3305C48.3616 55.3305 48.2598 55.2287 48.2598 55.1031C48.2598 54.9774 48.3616 54.8756 48.4872 54.8756C48.6129 54.8756 48.7147 54.9774 48.7147 55.1031Z" fill="#279FB9" stroke="#279FB9" stroke-width="2"/>
<path id="Vector_20" d="M48.1014 48.3518C48.1014 48.4774 47.9996 48.5792 47.874 48.5792C47.7483 48.5792 47.6465 48.4774 47.6465 48.3518C47.6465 48.2261 47.7483 48.1243 47.874 48.1243C47.9996 48.1243 48.1014 48.2261 48.1014 48.3518Z" fill="#279FB9" stroke="#279FB9" stroke-width="2"/>
</g>
</g>
</svg>
