<svg width="74" height="70" viewBox="0 0 74 70" fill="none" xmlns="http://www.w3.org/2000/svg">
<g id="Group 35608">
<path id="Vector" d="M1.86621 60.3259C5.93742 64.3971 11.5606 66.9135 17.7715 66.9135" stroke="#279FB9" stroke-width="2" stroke-linecap="round" stroke-linejoin="round"/>
<path id="Vector_2" d="M40.2643 44.4207C40.2643 56.8423 30.1932 66.9135 17.7715 66.9135" stroke="#279FB9" stroke-width="2" stroke-linecap="round" stroke-linejoin="round"/>
<path id="Vector_3" d="M6.52539 1.93335C6.52539 13.1798 40.2647 37.6222 40.2647 44.4206" stroke="#279FB9" stroke-width="2" stroke-linecap="round" stroke-linejoin="round"/>
<path id="Vector_4" d="M40.2646 41.609H43.0763C44.6283 41.609 45.8879 42.8686 45.8879 44.4206C45.8879 45.9727 44.6283 47.2323 43.0763 47.2323H40.2646" stroke="#279FB9" stroke-width="2" stroke-linecap="round" stroke-linejoin="round"/>
<path id="Vector_5" d="M26.7656 37.459C24.9858 35.5218 23.102 33.5256 21.4348 31.7655C20.2933 30.5565 19.1827 29.3812 18.1114 28.2341C16.0449 26.0214 12.5529 26.8649 11.4873 29.3953" stroke="#279FB9" stroke-width="2" stroke-linecap="round" stroke-linejoin="round"/>
<path id="Vector_6" d="M10.627 58.1441C12.8059 59.2828 15.2408 59.8844 17.7712 59.8844C23.4676 59.8844 28.4553 56.7889 31.1376 52.1891" stroke="#279FB9" stroke-width="2" stroke-linecap="round" stroke-linejoin="round"/>
<path id="Vector_7" d="M5.78027 51.208C6.14859 51.9446 6.82338 52.5126 7.67811 52.6981C10.0005 53.207 12.5422 53.4741 15.171 53.4741C18.6293 53.4741 21.8655 53.0046 24.6152 52.192" stroke="#279FB9" stroke-width="2" stroke-linecap="round" stroke-linejoin="round"/>
<path id="Vector_8" d="M33.2124 45.264C31.5142 43.8132 24.5892 40.2931 19.4524 37.6811C17.1947 36.534 15.0523 35.4374 13.0364 34.3831C10.9923 33.3175 8.56871 34.2762 7.7168 36.2753" stroke="#279FB9" stroke-width="2" stroke-linecap="round" stroke-linejoin="round"/>
<path id="Vector_9" d="M7.20283 46.9736C4.98166 46.9033 3.66864 44.4572 4.81859 42.5566L4.82703 42.5453C5.43152 41.5472 6.5646 41.0046 7.72017 41.1704C10.2675 41.536 14.5018 42.2051 18.8063 42.8996" stroke="#279FB9" stroke-width="2" stroke-linecap="round" stroke-linejoin="round"/>
<path id="Vector_10" d="M26.7663 46.5659C23.2293 46.8752 18.5227 47.0664 13.3662 47.0664" stroke="#279FB9" stroke-width="2" stroke-linecap="round" stroke-linejoin="round"/>
<g id="Group 35609">
<path id="Vector_11" d="M66.5098 44.4207C66.5098 56.8423 54.1761 72.3563 39.498 66.9135" stroke="#279FB9" stroke-width="2" stroke-linecap="round" stroke-linejoin="round"/>
<path id="Vector_12" d="M32.7705 1.93335C32.7705 13.1798 66.5098 37.6222 66.5098 44.4206" stroke="#279FB9" stroke-width="2" stroke-linecap="round" stroke-linejoin="round"/>
<path id="Vector_13" d="M66.5098 41.609H69.3214C70.8734 41.609 72.133 42.8686 72.133 44.4206C72.133 45.9727 70.8734 47.2323 69.3214 47.2323H66.5098" stroke="#279FB9" stroke-width="2" stroke-linecap="round" stroke-linejoin="round"/>
</g>
</g>
</svg>
