<svg width="51" height="50" viewBox="0 0 51 50" fill="none" xmlns="http://www.w3.org/2000/svg">
<path fill-rule="evenodd" clip-rule="evenodd" d="M22.4849 34.7698C28.9935 34.7698 34.2698 29.4935 34.2698 22.9849C34.2698 16.4763 28.9935 11.2 22.4849 11.2C15.9763 11.2 10.7 16.4763 10.7 22.9849C10.7 29.4935 15.9763 34.7698 22.4849 34.7698ZM22.4849 38.9698C31.3131 38.9698 38.4698 31.8131 38.4698 22.9849C38.4698 14.1567 31.3131 7 22.4849 7C13.6567 7 6.5 14.1567 6.5 22.9849C6.5 31.8131 13.6567 38.9698 22.4849 38.9698Z" fill="#E1E1E1"/>
<path fill-rule="evenodd" clip-rule="evenodd" d="M31.749 32.4446C32.5691 31.6245 33.8987 31.6245 34.7188 32.4446L41.985 39.7109C42.8051 40.531 42.8051 41.8606 41.985 42.6807C41.1649 43.5008 39.8353 43.5008 39.0152 42.6807L31.749 35.4145C30.9289 34.5944 30.9289 33.2647 31.749 32.4446Z" fill="#E1E1E1"/>
</svg>
